<?xml version="1.0" standalone="no"?>
<!DOCTYPE svg PUBLIC "-//W3C//DTD SVG 20010904//EN"
 "http://www.w3.org/TR/2001/REC-SVG-20010904/DTD/svg10.dtd">
<svg version="1.0" xmlns="http://www.w3.org/2000/svg"
 width="1366.000000pt" height="768.000000pt" viewBox="0 0 1366.000000 768.000000"
 preserveAspectRatio="xMidYMid meet">

<g transform="translate(0.000000,768.000000) scale(0.100000,-0.100000)"
fill="#000000" stroke="none">
<path d="M7142 7370 c0 -65 1 -69 8 -31 4 24 3 58 -1 75 -5 22 -7 9 -7 -44z"/>
<path d="M7462 7400 c-7 -20 -7 -32 -1 -36 6 -3 7 -19 4 -35 -4 -18 -3 -29 4
-29 7 0 11 25 11 65 0 36 -2 65 -4 65 -2 0 -9 -13 -14 -30z"/>
<path d="M5290 7410 c-8 -5 -25 -10 -37 -10 -13 0 -23 -4 -23 -10 0 -5 -9 -10
-20 -10 -11 0 -20 -4 -20 -10 0 -5 -5 -10 -11 -10 -23 0 -99 -72 -142 -133
-100 -144 -136 -258 -144 -467 -6 -142 19 -275 68 -372 5 -10 9 -29 9 -43 0
-14 9 -34 21 -46 14 -14 17 -24 10 -33 -7 -9 -3 -17 19 -29 16 -10 32 -26 35
-37 3 -10 16 -22 28 -26 12 -4 42 -21 68 -39 25 -17 59 -36 75 -42 68 -24 102
-33 131 -33 61 0 216 65 238 100 3 5 14 10 23 10 26 0 98 82 94 108 -2 13 3
25 12 28 9 3 16 17 16 30 0 13 4 32 9 42 86 169 96 481 21 677 -82 215 -255
365 -421 365 -24 0 -51 -5 -59 -10z m166 -39 c139 -50 251 -189 303 -373 6
-21 16 -54 22 -74 15 -48 14 -332 -1 -381 -7 -21 -16 -54 -22 -73 -43 -156
-147 -298 -263 -358 -68 -36 -195 -37 -268 -4 -114 52 -229 214 -275 387 -22
79 -25 112 -25 240 1 135 9 213 24 229 5 6 9 21 9 35 0 14 20 66 44 116 104
214 286 317 452 256z"/>
<path d="M5325 7180 c3 -5 8 -10 11 -10 2 0 4 5 4 10 0 6 -5 10 -11 10 -5 0
-7 -4 -4 -10z"/>
<path d="M5337 7112 c-13 -30 -93 -107 -111 -107 -7 0 -11 22 -11 58 0 42 -3
57 -13 57 -9 0 -12 -6 -8 -16 3 -9 6 -56 6 -106 0 -88 1 -91 19 -74 22 20 51
11 51 -15 0 -24 11 -24 33 1 21 25 33 25 46 3 9 -16 25 -3 120 91 60 60 108
113 105 118 -11 17 -48 -5 -110 -68 -36 -35 -71 -64 -79 -64 -20 0 -20 78 -1
106 13 18 12 21 -11 31 -22 10 -25 9 -36 -15z"/>
<path d="M5102 6980 c0 -14 2 -19 5 -12 2 6 2 18 0 25 -3 6 -5 1 -5 -13z"/>
<path d="M5015 6970 c3 -5 8 -10 11 -10 2 0 4 5 4 10 0 6 -5 10 -11 10 -5 0
-7 -4 -4 -10z"/>
<path d="M5572 6948 c-17 -17 -15 -48 3 -48 20 0 29 24 18 44 -7 13 -12 13
-21 4z"/>
<path d="M5083 6926 c-33 -15 -28 -29 7 -21 l30 7 0 -131 0 -131 25 0 c23 0
25 4 25 41 0 23 7 47 16 56 14 14 17 13 39 -7 31 -29 42 -20 25 19 -6 16 -9
35 -5 40 12 20 -9 11 -36 -15 -15 -14 -32 -24 -37 -20 -5 3 -7 39 -4 81 5 74
4 75 -20 75 -13 0 -28 4 -33 8 -6 5 -20 4 -32 -2z"/>
<path d="M5422 6868 c-54 -55 -59 -63 -44 -75 28 -20 45 -17 32 7 -12 23 10
63 57 100 14 11 24 23 21 25 -3 3 -32 -22 -66 -57z"/>
<path d="M5295 6828 c-27 -26 -27 -56 1 -98 l24 -35 0 32 c0 21 7 37 21 47
l21 14 -20 11 c-11 6 -22 19 -24 29 -3 18 -4 18 -23 0z"/>
<path d="M5498 6803 c6 -2 18 -2 25 0 6 3 1 5 -13 5 -14 0 -19 -2 -12 -5z"/>
<path d="M5455 6780 c4 -6 11 -8 16 -5 14 9 11 15 -7 15 -8 0 -12 -5 -9 -10z"/>
<path d="M5620 6781 c0 -5 -3 -16 -6 -25 -4 -12 0 -16 15 -16 22 0 25 8 15 34
-7 17 -24 22 -24 7z"/>
<path d="M5390 6675 c0 -39 19 -84 44 -105 12 -9 13 -16 6 -25 -8 -10 -7 -15
1 -21 7 -4 15 -2 17 4 2 7 19 12 38 12 19 0 34 5 34 10 0 6 7 10 16 10 21 0
15 15 -37 92 -35 52 -43 59 -49 43 -5 -13 4 -34 28 -67 36 -51 38 -87 4 -69
-30 16 -43 36 -49 78 -6 37 -27 73 -45 73 -4 0 -8 -16 -8 -35z"/>
<path d="M5640 6628 c0 -34 13 -29 25 10 5 16 2 22 -9 22 -11 0 -16 -10 -16
-32z"/>
<path d="M5330 6590 c12 -16 18 -34 15 -40 -3 -5 -27 -10 -53 -10 -36 0 -43
-3 -34 -12 8 -8 12 -49 12 -119 0 -92 -3 -110 -21 -133 l-20 -26 51 0 c47 0
50 1 40 19 -14 27 -13 104 2 119 9 9 10 15 2 20 -6 4 -14 24 -17 45 -6 36 -3
42 34 75 37 35 39 39 27 64 -9 19 -21 28 -36 28 l-23 0 21 -30z"/>
<path d="M5585 6510 c3 -5 14 -10 23 -10 15 0 15 2 2 10 -20 13 -33 13 -25 0z"/>
<path d="M5439 6433 c12 -23 48 -53 62 -53 6 0 3 7 -5 16 -9 8 -21 24 -26 35
-6 10 -17 19 -26 19 -11 0 -12 -4 -5 -17z"/>
<path d="M5150 6315 c-19 -23 -8 -37 18 -20 12 9 22 20 22 26 0 14 -26 11 -40
-6z"/>
<path d="M5420 6320 c-8 -5 -23 -11 -32 -14 -11 -3 -18 -15 -18 -29 0 -20 6
-25 36 -30 52 -9 64 -1 64 44 0 41 -15 49 -50 29z"/>
<path d="M6302 7360 c0 -58 1 -62 9 -32 8 28 12 32 24 22 13 -10 15 -8 15 13
0 19 -4 25 -15 21 -9 -4 -18 2 -24 17 -8 19 -10 10 -9 -41z"/>
<path d="M6532 7360 c0 -58 1 -61 9 -29 4 20 4 49 -1 65 -7 23 -8 16 -8 -36z"/>
<path d="M6810 7401 c-6 -12 -9 -32 -7 -44 4 -21 4 -21 6 1 2 34 24 22 32 -17
4 -17 10 -35 13 -39 9 -8 26 18 25 38 0 10 -2 11 -6 3 -7 -20 -23 -15 -23 6 0
10 -6 31 -14 46 -14 27 -14 27 -26 6z"/>
<path d="M7827 7407 c-6 -17 3 -107 12 -107 7 0 5 109 -2 116 -2 3 -7 -1 -10
-9z"/>
<path d="M8231 7400 c0 -15 7 -30 19 -38 26 -16 26 -49 0 -55 -17 -4 -16 -4 2
-3 31 1 37 43 10 62 -12 8 -23 24 -25 37 -4 20 -4 20 -6 -3z"/>
<path d="M8692 7366 c2 -43 7 -61 18 -63 12 -4 13 -3 1 5 -10 7 -12 22 -9 50
3 22 2 46 -3 53 -6 9 -8 -7 -7 -45z"/>
<path d="M7579 7350 c-6 -45 -4 -58 7 -48 3 3 4 26 2 49 l-3 44 -6 -45z"/>
<path d="M8062 7342 c1 -40 2 -42 5 -12 3 19 9 38 15 41 5 4 3 9 -6 12 -13 5
-16 -2 -14 -41z"/>
<path d="M6989 7368 c-5 -46 -4 -68 3 -68 4 0 8 18 8 40 0 37 -8 57 -11 28z"/>
<path d="M7080 7369 c0 -5 5 -7 10 -4 6 3 10 8 10 11 0 2 -4 4 -10 4 -5 0 -10
-5 -10 -11z"/>
<path d="M7198 7340 c2 -22 6 -40 8 -40 2 0 4 18 4 40 0 22 -3 40 -8 40 -4 0
-6 -18 -4 -40z"/>
<path d="M7311 7364 c0 -11 3 -14 6 -6 3 7 2 16 -1 19 -3 4 -6 -2 -5 -13z"/>
<path d="M7773 7340 c0 -25 2 -35 4 -22 2 12 2 32 0 45 -2 12 -4 2 -4 -23z"/>
<path d="M8443 7345 c0 -22 2 -30 4 -17 2 12 2 30 0 40 -3 9 -5 -1 -4 -23z"/>
<path d="M6760 7343 c0 -17 5 -35 11 -38 19 -13 22 4 6 37 l-17 33 0 -32z"/>
<path d="M6571 7344 c0 -11 3 -14 6 -6 3 7 2 16 -1 19 -3 4 -6 -2 -5 -13z"/>
<path d="M7942 7340 c0 -14 2 -19 5 -12 2 6 2 18 0 25 -3 6 -5 1 -5 -13z"/>
<path d="M8574 7349 c-3 -6 -1 -16 5 -22 8 -8 11 -5 11 11 0 24 -5 28 -16 11z"/>
<path d="M8801 7341 c0 -7 -7 -11 -14 -8 -9 3 -11 -6 -8 -36 l3 -40 15 33 c7
19 12 41 10 49 -3 11 -5 12 -6 2z"/>
<path d="M6361 7324 c0 -11 3 -14 6 -6 3 7 2 16 -1 19 -3 4 -6 -2 -5 -13z"/>
<path d="M6930 7320 c0 -11 4 -20 9 -20 5 0 7 9 4 20 -3 11 -7 20 -9 20 -2 0
-4 -9 -4 -20z"/>
<path d="M7035 7329 c-4 -6 -4 -13 -1 -16 3 -4 6 -1 6 5 0 6 8 13 18 15 15 4
15 5 0 6 -9 0 -20 -4 -23 -10z"/>
<path d="M7520 7321 c0 -10 19 -25 25 -20 1 2 -3 10 -11 17 -8 7 -14 8 -14 3z"/>
<path d="M7410 7310 c0 -5 5 -10 11 -10 5 0 7 5 4 10 -3 6 -8 10 -11 10 -2 0
-4 -4 -4 -10z"/>
<path d="M7640 7310 c0 -5 5 -10 11 -10 5 0 7 5 4 10 -3 6 -8 10 -11 10 -2 0
-4 -4 -4 -10z"/>
<path d="M7995 7310 c-3 -5 -1 -10 4 -10 6 0 11 5 11 10 0 6 -2 10 -4 10 -3 0
-8 -4 -11 -10z"/>
<path d="M8338 7308 c5 -5 16 -8 23 -6 8 3 3 7 -10 11 -17 4 -21 3 -13 -5z"/>
<path d="M7323 7303 c9 -2 23 -2 30 0 6 3 -1 5 -18 5 -16 0 -22 -2 -12 -5z"/>
<path d="M7031 7283 c-1 -20 4 -23 32 -22 29 2 29 2 5 6 -15 2 -29 12 -31 21
-3 12 -5 10 -6 -5z"/>
<path d="M6320 6965 l0 -205 34 0 34 0 9 62 c4 34 13 63 19 65 6 2 20 -25 31
-59 l20 -63 41 -3 c23 -2 42 0 42 4 0 3 -19 56 -41 116 l-41 109 32 77 c18 42
35 83 37 90 4 8 -6 12 -31 12 -33 0 -39 -4 -52 -37 -9 -21 -23 -54 -32 -73
l-17 -35 -9 73 -9 72 -33 0 -34 0 0 -205z"/>
<path d="M6824 7157 c-2 -7 -3 -98 -2 -202 l3 -190 37 -3 36 -3 7 65 c10 93
23 88 56 -22 l12 -43 86 3 86 3 3 43 3 42 -40 0 c-39 0 -41 -2 -41 -29 0 -35
-17 -51 -26 -24 -3 10 -10 27 -14 38 -5 11 -14 38 -21 60 -7 22 -17 44 -21 50
-15 17 -8 64 17 119 50 109 50 106 6 106 -34 0 -40 -4 -51 -32 -7 -18 -16 -42
-20 -53 -5 -11 -12 -29 -16 -40 -5 -14 -10 1 -17 53 l-9 72 -34 0 c-19 0 -37
-6 -40 -13z"/>
<path d="M7310 7154 c0 -8 4 -34 9 -57 5 -23 14 -70 20 -104 26 -149 33 -189
37 -210 4 -19 11 -23 44 -23 48 0 60 20 60 103 0 29 4 59 10 67 13 21 30 -29
30 -90 0 -70 6 -80 50 -80 46 0 49 4 61 78 5 31 14 82 20 112 5 30 14 82 19
115 5 33 12 70 16 83 6 20 3 22 -34 22 -46 0 -40 15 -59 -160 l-8 -75 -12 40
c-6 22 -17 75 -24 118 l-12 77 -38 0 c-43 0 -41 5 -59 -115 -5 -38 -14 -83
-18 -100 -9 -32 -8 -42 -28 153 l-7 62 -38 0 c-29 0 -39 -4 -39 -16z"/>
<path d="M8185 7148 c-3 -13 -4 -104 -3 -203 l3 -180 31 -3 32 -3 3 115 c3 74
9 120 17 128 26 26 37 -9 41 -128 l3 -115 32 3 31 3 3 75 c5 104 -6 197 -25
216 -12 12 -27 14 -60 9 l-43 -6 0 55 c0 55 0 56 -30 56 -22 0 -31 -5 -35 -22z"/>
<path d="M7748 7064 c-29 -15 -48 -42 -48 -68 0 -24 49 -20 77 5 18 18 25 20
37 9 22 -17 4 -45 -44 -70 -57 -29 -80 -58 -80 -100 0 -53 23 -80 70 -80 21 0
42 5 45 10 4 7 12 7 25 0 10 -5 30 -10 45 -10 l26 0 -3 137 -3 137 -34 23
c-39 26 -74 29 -113 7z m72 -219 c-17 -46 -70 -22 -55 25 3 9 15 22 28 27 18
8 23 7 29 -8 4 -11 3 -30 -2 -44z"/>
<path d="M7985 7067 c-39 -21 -44 -40 -45 -142 0 -126 11 -148 74 -143 40 3
41 2 44 -30 4 -39 -23 -56 -44 -28 -15 21 -67 18 -72 -4 -1 -9 7 -26 18 -38
31 -33 112 -31 145 3 25 24 25 27 25 201 l0 176 -37 -4 c-21 -3 -49 1 -63 8
-19 9 -31 9 -45 1z m75 -143 c0 -59 -3 -76 -16 -81 -24 -9 -34 15 -34 84 0 48
4 64 17 72 28 15 33 4 33 -75z"/>
<path d="M6570 6828 c0 -13 -3 -33 -6 -45 -6 -21 -3 -23 35 -23 l41 0 0 45 c0
45 0 45 -35 45 -30 0 -35 -3 -35 -22z"/>
<path d="M6300 6489 c0 -81 2 -90 18 -87 21 4 26 34 17 115 -5 45 -11 63 -21
63 -11 0 -14 -19 -14 -91z"/>
<path d="M6630 6564 c0 -9 5 -14 12 -12 18 6 21 28 4 28 -9 0 -16 -7 -16 -16z"/>
<path d="M7196 6558 c-20 -31 -3 -181 18 -157 2 2 6 43 10 92 7 91 0 108 -28
65z"/>
<path d="M7310 6490 l0 -90 45 0 c51 0 66 26 18 32 -36 4 -40 41 -5 46 27 4
30 32 3 32 -19 0 -35 23 -24 34 4 3 15 6 25 6 10 0 18 7 18 15 0 11 -11 15
-40 15 l-40 0 0 -90z"/>
<path d="M7641 6564 c0 -11 3 -14 6 -6 3 7 2 16 -1 19 -3 4 -6 -2 -5 -13z"/>
<path d="M8081 6564 c0 -11 3 -14 6 -6 3 7 2 16 -1 19 -3 4 -6 -2 -5 -13z"/>
<path d="M8400 6491 l0 -91 39 0 c47 0 66 27 23 32 -37 4 -41 35 -7 48 29 11
25 30 -6 30 -27 0 -26 38 1 42 35 5 27 23 -12 26 l-38 3 0 -90z"/>
<path d="M8561 6557 c-6 -16 -18 -27 -30 -27 -20 0 -31 -25 -31 -72 0 -47 9
-58 51 -58 l39 0 0 78 c0 89 -13 123 -29 79z m-6 -92 c0 -16 -6 -30 -12 -32
-9 -3 -13 7 -13 32 0 25 4 35 13 33 6 -3 12 -17 12 -33z"/>
<path d="M9000 6571 c0 -6 5 -13 10 -16 6 -3 10 1 10 9 0 9 -4 16 -10 16 -5 0
-10 -4 -10 -9z"/>
<path d="M9347 6573 c-4 -3 -7 -23 -7 -44 0 -21 -4 -41 -10 -44 -11 -7 -13
-45 -4 -69 5 -12 20 -16 61 -16 47 0 54 2 44 14 -7 8 -11 27 -9 43 2 22 -1 27
-14 25 -20 -3 -23 10 -7 39 15 28 2 59 -25 59 -12 0 -26 -3 -29 -7z m38 -22
c3 -5 1 -12 -5 -16 -5 -3 -10 1 -10 9 0 18 6 21 15 7z m-11 -97 c9 -22 8 -24
-9 -24 -8 0 -15 9 -15 20 0 24 15 27 24 4z"/>
<path d="M9520 6490 c0 -72 3 -90 14 -90 9 0 16 12 18 32 4 46 28 49 28 4 0
-29 4 -36 20 -36 16 0 20 7 20 34 0 19 -4 37 -10 41 -6 4 -5 15 2 30 17 37
-12 75 -57 75 l-35 0 0 -90z m60 40 c0 -21 -15 -27 -25 -10 -7 12 2 30 16 30
5 0 9 -9 9 -20z"/>
<path d="M10228 6574 c-5 -4 -8 -45 -8 -91 0 -67 3 -83 15 -83 11 0 15 12 15
50 0 49 12 66 24 34 3 -9 6 -31 6 -50 0 -19 5 -34 10 -34 6 0 10 28 10 65 0
61 -1 65 -23 65 -16 0 -26 8 -33 26 -5 14 -12 23 -16 18z"/>
<path d="M6558 6546 c-13 -18 -24 -21 -52 -18 -34 4 -36 3 -36 -27 0 -20 7
-35 20 -43 24 -15 27 -43 4 -34 -9 3 -22 6 -30 6 -10 0 -14 13 -14 44 0 48 -9
56 -61 56 l-29 0 0 -65 c0 -51 3 -65 15 -65 11 0 15 12 15 49 0 50 13 74 24
45 3 -9 6 -33 6 -55 0 -39 21 -55 34 -26 5 10 7 10 12 0 7 -17 52 -17 68 0 16
16 5 47 -23 67 -31 21 -26 29 17 26 36 -2 37 -3 39 -42 1 -21 2 -45 2 -51 1
-7 10 -13 21 -13 17 0 18 3 9 27 -6 15 -7 48 -4 73 8 58 -11 81 -37 46z"/>
<path d="M6683 6551 c-3 -12 -15 -21 -30 -23 -24 -3 -26 -7 -28 -65 -2 -56 0
-63 16 -63 16 0 19 8 19 55 0 30 5 55 10 55 6 0 10 -18 10 -39 0 -51 8 -71 30
-71 15 0 16 4 6 40 -7 30 -7 46 1 58 8 13 7 24 -3 45 -17 32 -24 34 -31 8z"/>
<path d="M6861 6556 c-8 -9 -9 -35 -4 -82 7 -62 10 -69 31 -72 21 -3 22 -1 13
17 -13 24 -15 91 -2 91 5 0 3 14 -5 30 -18 34 -18 35 -33 16z"/>
<path d="M8930 6544 c-8 -21 -14 -24 -33 -18 -46 15 -100 -6 -67 -26 9 -6 17
-5 22 3 4 6 11 8 15 3 4 -4 -4 -18 -19 -30 -18 -14 -28 -31 -28 -49 0 -25 3
-27 45 -27 l45 0 0 55 c0 30 5 55 10 55 6 0 10 -18 10 -39 0 -56 8 -71 38 -71
20 0 23 3 14 12 -18 18 -16 98 3 98 12 0 15 -13 15 -55 0 -43 3 -55 15 -55 13
0 15 11 13 63 -3 58 -4 62 -26 59 -16 -2 -25 4 -32 22 -12 33 -28 33 -40 0z
m-57 -110 c-4 -10 -9 -12 -15 -6 -12 12 -1 35 12 27 5 -3 6 -13 3 -21z"/>
<path d="M6749 6525 c-3 -28 0 -105 5 -114 4 -6 23 -11 42 -11 l34 0 0 55 c0
30 0 58 1 63 0 4 -7 8 -15 10 -11 2 -16 -8 -18 -45 -4 -62 -22 -62 -26 0 -2
26 -7 47 -13 47 -5 0 -9 -2 -10 -5z"/>
<path d="M6926 6515 c-8 -21 -8 -79 0 -99 5 -14 64 -24 64 -12 0 2 3 12 6 20
5 14 2 15 -21 6 -24 -9 -26 -8 -23 12 2 15 11 24 26 26 19 3 23 9 20 30 -2 22
-9 28 -34 30 -22 2 -33 -2 -38 -13z m54 -15 c0 -5 -7 -10 -15 -10 -8 0 -15 5
-15 10 0 6 7 10 15 10 8 0 15 -4 15 -10z"/>
<path d="M7087 6523 c-13 -13 -7 -100 7 -113 28 -22 60 -8 69 30 13 52 -5 90
-41 90 -16 0 -32 -3 -35 -7z m53 -59 c0 -35 -16 -46 -26 -19 -8 21 4 67 16 60
6 -3 10 -22 10 -41z"/>
<path d="M7427 6523 c-4 -3 -7 -33 -7 -65 0 -73 23 -77 28 -5 2 33 7 47 18 47
10 0 14 -13 14 -50 0 -27 5 -50 10 -50 6 0 10 28 10 65 l0 65 -33 0 c-19 0
-37 -3 -40 -7z"/>
<path d="M7533 6523 c-8 -3 -13 -24 -13 -53 0 -44 2 -49 30 -59 30 -10 38 -25
20 -36 -6 -3 -13 1 -16 9 -7 18 -24 11 -24 -10 0 -17 51 -19 68 -2 7 7 12 42
12 85 l0 73 -32 -1 c-18 0 -39 -3 -45 -6z m47 -53 c0 -35 -16 -48 -25 -20 -8
25 3 62 16 55 5 -4 9 -19 9 -35z"/>
<path d="M7634 6516 c-9 -25 1 -109 14 -114 9 -3 12 14 12 62 0 61 -13 87 -26
52z"/>
<path d="M7690 6466 c0 -75 17 -90 22 -19 3 51 28 74 28 26 0 -39 10 -73 22
-73 5 0 8 28 6 63 l-3 62 -37 3 -38 3 0 -65z"/>
<path d="M7802 6518 c-7 -7 -12 -30 -12 -53 0 -23 5 -46 12 -53 17 -17 53 -15
68 3 17 21 4 32 -21 17 -16 -10 -20 -10 -25 2 -8 22 4 36 31 36 32 0 37 12 19
38 -17 24 -53 29 -72 10z m46 -19 c-2 -6 -8 -10 -13 -10 -5 0 -11 4 -13 10 -2
6 4 11 13 11 9 0 15 -5 13 -11z"/>
<path d="M7904 6517 c-3 -8 -4 -36 -2 -63 3 -47 4 -49 36 -52 29 -3 33 0 32
26 -1 4 -12 6 -25 4 -14 -2 -25 0 -25 5 0 15 23 33 43 33 14 0 18 6 15 28 -2
22 -8 28 -36 30 -21 2 -34 -2 -38 -11z m46 -17 c0 -5 -4 -10 -10 -10 -5 0 -10
5 -10 10 0 6 5 10 10 10 6 0 10 -4 10 -10z"/>
<path d="M8000 6465 c0 -51 3 -65 15 -65 11 0 15 12 15 44 0 25 5 48 10 51 20
12 10 35 -15 35 -24 0 -25 -2 -25 -65z"/>
<path d="M8076 6523 c-3 -3 -6 -33 -6 -65 0 -45 3 -58 15 -58 12 0 15 13 15
59 0 56 -9 79 -24 64z"/>
<path d="M8130 6466 c0 -75 17 -90 22 -19 4 66 28 70 28 4 0 -39 4 -51 15 -51
13 0 15 11 13 63 l-3 62 -37 3 -38 3 0 -65z"/>
<path d="M8236 6518 c-14 -45 -13 -77 1 -98 12 -17 13 -24 3 -30 -20 -12 -2
-30 30 -30 35 0 40 13 40 101 l0 69 -35 0 c-20 0 -37 -6 -39 -12z m47 -67 c-3
-11 -9 -18 -14 -15 -11 6 -12 58 -2 68 11 10 23 -29 16 -53z m-3 -61 c0 -13
-5 -18 -14 -14 -8 3 -12 12 -9 20 8 21 23 17 23 -6z"/>
<path d="M8612 6468 l3 -63 43 -3 43 -3 -3 62 c-4 77 -25 93 -30 22 -4 -62
-22 -62 -26 0 -2 34 -7 47 -18 47 -12 0 -14 -12 -12 -62z"/>
<path d="M8724 6516 c-3 -7 -4 -35 -2 -62 3 -47 4 -49 35 -52 25 -2 33 1 38
18 9 27 0 36 -19 21 -20 -17 -36 -6 -36 23 0 30 22 50 37 35 13 -13 28 5 18
21 -9 15 -65 12 -71 -4z"/>
<path d="M9057 6523 c-9 -8 -9 -86 -1 -107 10 -27 59 -20 72 9 25 55 7 105
-37 105 -15 0 -31 -3 -34 -7z m48 -34 c9 -26 -2 -72 -15 -64 -13 8 -13 85 -1
85 5 0 13 -9 16 -21z"/>
<path d="M9160 6465 c0 -74 17 -89 22 -18 4 66 28 70 28 4 0 -28 5 -51 10 -51
6 0 10 28 10 65 l0 65 -35 0 -35 0 0 -65z"/>
<path d="M9644 6516 c-3 -7 -4 -35 -2 -62 3 -46 5 -49 32 -52 16 -2 32 2 37 9
11 19 0 32 -17 18 -17 -14 -16 -15 -18 39 -1 23 1 42 6 42 4 0 8 -9 8 -21 0
-17 4 -20 29 -14 21 4 30 2 34 -9 4 -9 13 -16 22 -16 8 0 15 -7 15 -15 0 -11
-8 -13 -32 -8 -30 6 -32 5 -19 -10 16 -20 52 -22 69 -5 10 10 17 10 32 0 25
-15 45 -15 71 1 17 10 23 10 26 0 3 -8 22 -13 44 -13 l40 0 -3 63 -3 62 -34 0
c-20 0 -36 -6 -39 -14 -3 -10 2 -12 22 -7 14 3 26 3 26 0 0 -15 -71 -75 -81
-69 -5 4 -16 2 -24 -5 -16 -13 -28 1 -19 24 3 9 17 16 31 16 19 0 24 4 21 21
-4 29 -29 43 -61 35 -23 -5 -27 -12 -27 -41 0 -18 -4 -37 -10 -40 -5 -3 -10 0
-10 7 0 7 -9 19 -20 26 -27 16 -26 35 1 27 15 -5 20 -3 17 6 -7 21 -47 23 -68
4 -16 -14 -18 -14 -23 0 -8 19 -66 20 -73 1z m246 -15 c0 -6 -4 -13 -10 -16
-5 -3 -10 1 -10 9 0 9 5 16 10 16 6 0 10 -4 10 -9z m102 -63 c-6 -6 -16 -7
-22 -3 -9 6 -9 9 1 16 17 10 34 0 21 -13z"/>
<path d="M10047 6523 c-4 -3 -7 -33 -7 -65 0 -43 4 -58 14 -58 9 0 17 16 21
43 4 23 12 47 17 54 5 7 7 17 3 23 -7 11 -38 14 -48 3z"/>
<path d="M10121 6521 c-11 -7 -12 -20 -5 -63 8 -49 11 -53 38 -56 28 -4 46 10
46 36 0 6 -7 12 -15 12 -8 0 -15 -8 -15 -17 -1 -16 -2 -16 -15 1 -26 35 -11
92 18 68 16 -14 28 -6 20 14 -6 16 -50 19 -72 5z"/>
<path d="M5877 6373 c-20 -2 -49 -11 -65 -19 l-27 -16 30 7 c17 4 59 9 96 12
104 7 195 -43 269 -147 67 -96 174 -171 238 -169 21 1 28 3 17 6 -56 12 -113
53 -177 128 -89 102 -139 148 -191 173 -44 21 -125 32 -190 25z"/>
<path d="M4655 6349 c-42 -20 -141 -112 -206 -191 -44 -53 -107 -98 -151 -108
l-33 -8 37 -1 c64 -2 176 77 238 169 64 95 151 145 250 145 36 0 81 -4 100 -8
l35 -8 -34 15 c-50 24 -184 21 -236 -5z"/>
<path d="M4654 6262 c-6 -4 -23 -25 -38 -46 -28 -42 -36 -122 -14 -144 7 -7
40 -12 83 -11 51 1 62 3 40 8 -73 18 -97 44 -97 106 0 35 6 53 23 71 23 24 24
30 3 16z"/>
<path d="M6074 6238 c20 -28 21 -98 2 -123 -7 -10 -33 -26 -57 -36 l-44 -18
61 0 c51 -1 64 3 82 22 12 13 22 31 22 40 0 21 -39 107 -56 125 -20 20 -26 14
-10 -10z"/>
<path d="M4790 6226 c0 -7 9 -16 20 -19 16 -4 20 -14 20 -44 0 -21 -5 -44 -12
-51 -19 -19 -3 -14 18 6 23 21 44 57 44 76 0 17 -43 46 -70 46 -11 0 -20 -6
-20 -14z"/>
<path d="M5862 6228 c-19 -19 -14 -73 8 -93 20 -18 20 -17 20 21 0 30 6 43 28
61 l27 22 -35 1 c-20 0 -41 -5 -48 -12z"/>
<path d="M4059 6223 c-32 -5 -54 -42 -45 -78 7 -27 86 -85 117 -85 10 0 21 -4
24 -10 3 -5 16 -10 28 -9 14 0 16 2 7 6 -62 20 -105 60 -116 106 -8 39 10 57
59 57 22 0 38 2 36 4 -8 6 -84 13 -110 9z"/>
<path d="M6580 6220 l-35 -7 41 -2 c75 -2 86 -48 26 -111 -41 -42 -36 -50 15
-25 44 22 83 64 83 90 0 44 -59 69 -130 55z"/>
<path d="M4150 6165 c0 -8 2 -15 4 -15 2 0 6 7 10 15 3 8 1 15 -4 15 -6 0 -10
-7 -10 -15z"/>
<path d="M4748 6173 c7 -3 16 -2 19 1 4 3 -2 6 -13 5 -11 0 -14 -3 -6 -6z"/>
<path d="M4957 6173 c-14 -14 -6 -50 16 -71 15 -14 36 -22 60 -22 33 0 37 3
37 24 0 30 -16 42 -35 26 -23 -19 -48 -4 -43 25 4 19 1 25 -12 25 -9 0 -20 -3
-23 -7z"/>
<path d="M5727 6156 c6 -27 -22 -43 -44 -25 -18 15 -36 -1 -31 -27 7 -38 86
-24 109 18 14 25 2 58 -20 58 -14 0 -17 -6 -14 -24z"/>
<path d="M5940 6163 c0 -15 2 -15 9 -4 5 8 16 11 25 8 9 -4 16 -2 16 3 0 6
-11 10 -25 10 -17 0 -25 -5 -25 -17z"/>
<path d="M4223 6141 c-13 -21 -8 -32 13 -24 14 5 20 43 6 43 -4 0 -13 -9 -19
-19z"/>
<path d="M6466 6145 c-6 -18 29 -41 39 -25 3 5 1 10 -4 10 -6 0 -11 7 -11 15
0 19 -16 19 -24 0z"/>
<path d="M6523 6043 c9 -2 23 -2 30 0 6 3 -1 5 -18 5 -16 0 -22 -2 -12 -5z"/>
<path d="M2178 4987 c-49 -19 -48 -82 3 -124 23 -20 26 -28 18 -41 -10 -17 7
-83 52 -198 12 -29 10 -33 -25 -65 -28 -25 -38 -43 -39 -68 -2 -32 1 -36 62
-67 118 -60 198 -167 221 -294 12 -63 32 -95 81 -128 33 -23 74 -25 123 -6 11
4 17 -5 25 -38 6 -23 28 -95 49 -158 l37 -115 50 3 c47 3 49 2 31 -13 -12 -9
-40 -15 -73 -15 -30 0 -68 -7 -84 -16 -21 -10 -34 -12 -42 -5 -7 5 -30 11 -52
13 l-40 3 -3 -77 -3 -76 -113 -4 c-128 -3 -140 -9 -179 -83 -18 -33 -22 -57
-22 -135 0 -120 21 -173 73 -178 24 -2 32 -8 32 -23 0 -18 11 -19 405 -19 263
0 405 -3 405 -10 0 -15 70 -12 75 3 18 53 49 49 -427 47 -298 -1 -444 2 -458
10 -21 11 -50 59 -50 85 0 12 12 15 59 15 39 0 61 -4 64 -12 3 -10 9 -10 28 0
17 9 107 13 324 15 l300 2 -302 3 c-187 1 -303 6 -303 12 0 5 14 25 31 45 32
36 56 44 76 24 6 -6 90 -15 199 -21 227 -12 306 1 375 60 48 42 90 123 83 160
-5 25 -1 28 44 45 31 10 63 31 82 54 32 36 32 37 28 121 -4 79 -3 85 17 94
l22 10 -24 91 c-28 104 -77 243 -93 263 -7 7 -18 37 -26 66 -13 49 -13 54 3
66 112 80 155 117 200 172 66 81 132 206 131 246 -1 16 4 39 11 51 18 35 13
48 -24 66 -35 17 -48 47 -20 47 8 0 15 6 15 13 0 9 2 9 8 -1 11 -17 44 -4 40
15 -3 13 -66 42 -90 43 -5 0 -8 -13 -8 -28 0 -16 -9 -37 -20 -47 -16 -15 -20
-29 -18 -64 3 -43 0 -49 -46 -95 -69 -68 -242 -146 -261 -117 -9 16 -41 13
-55 -4 -9 -11 -32 -15 -81 -15 -74 0 -94 11 -105 58 -4 15 -15 41 -24 57 -10
17 -22 63 -27 103 -9 71 -9 74 15 93 14 10 29 19 33 19 5 0 9 4 9 9 0 4 -40
14 -89 21 l-89 13 -69 -38 c-90 -49 -95 -55 -47 -55 50 0 67 -11 62 -40 -2
-18 -14 -26 -50 -37 -60 -17 -88 -52 -88 -108 0 -57 -30 -95 -74 -95 -24 0
-41 10 -73 43 -44 45 -112 145 -133 196 -7 17 -20 31 -29 31 -26 0 -18 54 13
91 15 17 25 33 23 35 -2 2 -18 -2 -36 -9 -28 -10 -34 -10 -45 6 -15 19 -37 20
-78 4z m531 -1421 c10 -9 62 -20 130 -28 72 -8 116 -18 119 -26 3 -9 -36 -12
-167 -12 -105 0 -171 4 -171 10 0 13 52 70 64 70 5 0 17 -6 25 -14z m186 -118
c10 -10 -55 -26 -185 -45 -63 -9 -117 -20 -120 -24 -9 -12 -53 -21 -59 -12 -3
6 -26 13 -50 16 -37 5 -44 3 -48 -14 -5 -16 -15 -19 -64 -19 -64 0 -69 6 -47
56 22 47 49 51 318 50 137 -1 251 -4 255 -8z m-477 -117 c8 -1 12 -19 12 -56
l0 -55 -65 0 -64 0 -7 36 c-3 19 -2 45 3 57 9 19 18 22 59 21 27 -1 55 -2 62
-3z"/>
<path d="M4958 4708 c-98 -133 -118 -166 -118 -197 0 -16 7 -37 16 -46 13 -13
182 -150 232 -188 9 -7 30 7 75 49 34 32 80 73 102 90 l39 30 -23 115 c-13 63
-27 121 -32 130 -5 9 -53 30 -109 48 -56 18 -108 35 -115 37 -9 4 -34 -22 -67
-68z"/>
<path d="M9988 4734 c-60 -39 -75 -85 -70 -226 l2 -48 815 0 815 0 6 26 c10
40 -2 147 -20 185 -9 19 -34 46 -55 62 l-39 27 -709 -1 -708 0 -37 -25z m136
-86 c20 -29 20 -52 0 -72 -21 -21 -46 -20 -73 3 -16 14 -21 26 -16 40 16 52
63 66 89 29z m142 -3 c36 -55 -16 -107 -71 -71 -30 20 -32 49 -5 76 27 27 56
25 76 -5z m129 13 c33 -15 36 -71 4 -88 -46 -25 -91 17 -72 67 12 33 29 39 68
21z"/>
<path d="M1050 4653 l-95 -25 -65 -76 c-54 -63 -60 -74 -40 -69 86 19 86 19
113 -12 14 -17 35 -31 46 -31 10 0 21 -5 23 -12 3 -8 18 -4 48 13 56 31 72 68
47 111 -22 39 -22 46 8 91 14 20 22 37 18 36 -4 0 -51 -12 -103 -26z"/>
<path d="M3720 4559 c0 -6 -14 -112 -31 -237 -17 -125 -31 -258 -30 -297 1
-38 -3 -113 -9 -165 -5 -52 -10 -131 -12 -175 l-3 -80 175 4 c96 2 176 4 177
5 1 1 5 20 9 43 l6 41 -58 6 c-33 3 -94 8 -136 12 l-78 6 0 59 c0 32 3 60 8
62 4 2 62 -1 130 -6 67 -6 125 -7 128 -4 3 2 8 29 11 59 5 47 2 58 -19 83 -22
26 -32 29 -105 33 l-80 4 -7 182 c-3 99 -9 225 -13 279 l-6 97 -29 0 c-15 0
-28 -5 -28 -11z"/>
<path d="M12665 4522 c-48 -30 -58 -47 -50 -90 7 -44 -16 -82 -66 -107 -15 -9
-33 -25 -40 -36 -10 -20 -9 -21 33 -17 39 3 43 1 46 -21 2 -13 -2 -43 -8 -67
-10 -35 -10 -47 0 -59 9 -11 9 -22 1 -47 -10 -28 -9 -35 6 -46 21 -15 60 -8
86 15 9 9 34 18 54 20 40 4 69 24 78 54 4 10 19 32 35 47 15 16 34 47 41 70
10 35 10 45 -4 65 -12 18 -14 39 -10 78 4 46 1 59 -19 88 -45 67 -123 89 -183
53z m-13 -347 c-12 -25 -52 -53 -52 -36 0 5 5 13 10 16 6 3 10 16 10 29 0 12
5 27 12 34 19 19 33 -14 20 -43z"/>
<path d="M4707 4317 c-39 -17 -49 -27 -58 -57 -6 -19 -9 -49 -7 -65 l3 -30 28
48 c16 26 34 47 41 47 7 0 23 -11 36 -25 15 -16 35 -25 54 -26 17 0 48 -1 70
-2 26 -1 42 3 49 14 18 28 1 49 -39 49 -30 0 -44 7 -70 35 -36 40 -42 41 -107
12z"/>
<path d="M5646 4284 c-9 -24 -9 -24 30 -24 29 0 35 3 30 16 -3 9 -6 18 -6 20
0 12 -49 2 -54 -12z"/>
<path d="M4142 4068 c5 -238 10 -245 171 -264 31 -4 57 -10 57 -15 0 -4 -15
-72 -34 -151 -28 -121 -67 -319 -81 -420 -4 -23 5 -35 60 -80 35 -29 62 -54
60 -56 -2 -2 -29 5 -60 17 -31 12 -57 21 -59 21 -6 0 -56 -126 -58 -148 -3
-21 11 -27 206 -92 115 -38 214 -74 219 -79 5 -5 40 -99 77 -208 l68 -198 73
1 c83 2 159 13 159 24 0 4 -30 85 -66 181 -64 169 -65 174 -49 201 15 26 15
35 0 117 -15 77 -15 107 -5 218 6 70 10 172 9 226 l-3 98 80 33 c92 38 138 61
177 88 24 17 27 25 22 50 -6 25 -42 116 -50 126 -1 1 -38 -16 -81 -38 -43 -22
-88 -39 -98 -38 -14 2 -23 19 -36 63 -31 112 -79 184 -149 223 -45 25 -54 21
-18 -9 l22 -19 -24 -20 c-13 -11 -34 -20 -48 -20 -34 0 -93 60 -93 94 l0 26
-140 0 c-163 0 -150 -9 -176 128 l-18 92 -59 0 -59 0 4 -172z m627 -1157 c20
-15 22 -21 12 -39 -10 -19 -15 -20 -36 -10 -25 11 -30 24 -19 52 8 20 13 20
43 -3z"/>
<path d="M3516 4122 c-17 -34 -13 -42 22 -42 21 0 23 3 17 28 -10 42 -22 47
-39 14z"/>
<path d="M11026 4124 c-18 -48 9 -99 39 -74 22 18 19 51 -5 57 -19 5 -20 6 -3
19 17 13 17 13 -3 14 -12 0 -25 -7 -28 -16z m34 -49 c0 -8 -4 -15 -10 -15 -5
0 -10 7 -10 15 0 8 5 15 10 15 6 0 10 -7 10 -15z"/>
<path d="M11144 4133 c4 -5 12 -9 17 -9 5 -1 12 -2 16 -3 4 0 -2 -8 -13 -16
-18 -13 -18 -14 -1 -15 12 0 17 -6 15 -17 -2 -10 -10 -17 -16 -15 -7 1 -12 -2
-12 -8 0 -14 26 -12 37 3 6 6 11 29 11 50 1 35 0 37 -30 37 -17 0 -28 -3 -24
-7z"/>
<path d="M11265 4098 c1 -24 3 -47 4 -51 0 -5 11 -7 24 -5 19 3 22 10 24 51 2
46 2 47 -26 47 -28 0 -29 -2 -26 -42z m35 22 c0 -5 -5 -10 -11 -10 -5 0 -7 5
-4 10 3 6 8 10 11 10 2 0 4 -4 4 -10z m-4 -57 c-10 -10 -19 5 -10 18 6 11 8
11 12 0 2 -7 1 -15 -2 -18z"/>
<path d="M11385 4130 c4 -6 10 -8 15 -5 21 13 20 -19 -1 -41 -25 -27 -21 -36
17 -40 21 -2 24 0 13 12 -9 11 -9 18 -1 26 7 7 12 22 12 35 0 19 -5 23 -31 23
-18 0 -28 -4 -24 -10z"/>
<path d="M11496 4125 c-6 -16 47 -78 58 -68 3 4 6 24 6 45 0 35 -2 38 -29 38
-16 0 -31 -6 -35 -15z m39 -33 c-3 -4 -10 0 -15 8 -6 9 -5 17 3 22 13 8 24
-19 12 -30z"/>
<path d="M11621 4116 c-11 -20 -10 -28 4 -50 11 -16 24 -25 32 -22 8 4 17 6
19 6 2 0 4 20 4 45 0 40 -2 45 -23 45 -15 0 -29 -9 -36 -24z m37 -48 c-3 -21
-4 -20 -17 5 -12 23 -12 29 0 43 13 16 14 16 17 -4 2 -12 2 -32 0 -44z"/>
<path d="M706 4123 c-3 -4 -25 -7 -49 -7 -36 -1 -42 -4 -42 -22 -1 -11 -9 -33
-18 -48 -25 -37 -36 -71 -29 -82 4 -6 43 -23 87 -38 139 -49 181 -73 240 -139
30 -34 71 -92 91 -130 42 -80 86 -244 73 -269 -5 -9 -9 -26 -9 -38 0 -12 -11
-38 -25 -58 -14 -20 -25 -41 -25 -47 0 -14 -43 -99 -55 -107 -5 -4 -29 -8 -52
-8 l-41 0 13 -50 13 -50 -30 -16 c-33 -17 -118 -92 -118 -104 0 -5 21 -2 47 6
25 8 49 14 52 14 3 0 6 -55 6 -122 0 -107 3 -130 23 -172 34 -74 83 -128 146
-160 65 -33 107 -30 155 10 26 21 38 25 88 22 57 -3 58 -4 60 -33 1 -33 -13
-204 -23 -272 l-6 -43 -124 0 c-173 0 -161 -19 14 -22 l137 -3 3 -37 c4 -44 4
-44 138 -53 85 -6 184 7 184 24 0 4 -33 18 -72 31 l-73 24 45 7 c25 4 107 8
183 8 84 1 137 5 137 11 0 6 -53 10 -139 10 l-139 0 -7 40 c-4 21 -4 44 0 50
4 6 60 11 138 12 l132 2 -130 6 -130 5 2 55 c1 30 7 83 14 117 l11 62 121 3
121 3 8 38 c4 21 15 52 24 68 14 28 20 31 48 26 24 -4 37 0 48 13 15 16 21 17
94 4 96 -17 353 -51 452 -60 l72 -7 0 77 0 76 -395 0 -395 0 0 40 0 40 189 0
c116 0 192 4 196 10 4 7 -61 10 -188 10 l-193 0 -13 78 c-8 42 -16 89 -18 105
l-5 27 93 0 94 0 -27 23 c-15 12 -34 39 -42 61 -16 39 -21 75 -10 63 4 -3 15
-2 24 3 15 8 19 5 25 -18 6 -23 8 -25 19 -12 6 8 22 21 35 28 20 12 26 11 44
-5 l21 -18 -17 27 c-9 15 -17 34 -17 42 0 8 -6 16 -12 19 -10 4 -10 7 0 18 17
18 15 34 -3 19 -17 -14 -20 -46 -4 -55 7 -5 5 -13 -6 -25 -26 -29 -65 -7 -65
35 0 37 34 87 54 79 9 -3 17 9 25 40 6 26 25 60 45 80 l33 36 -28 0 c-31 0
-94 -49 -104 -81 -7 -22 -15 -24 -39 -6 -17 13 -17 16 14 50 l32 37 -96 0 -96
0 0 81 c0 44 -5 89 -10 99 -6 10 -54 44 -108 74 l-97 55 -140 -9 c-94 -5 -147
-5 -160 2 -21 11 -292 185 -430 275 -80 53 -95 59 -109 46z m1183 -842 c8 -15
6 -20 -15 -30 -33 -15 -34 -15 -34 12 0 40 31 52 49 18z m-336 -305 c3 -8 -2
-21 -12 -30 -17 -16 -19 -15 -34 8 -15 23 -15 25 1 29 31 8 40 7 45 -7z"/>
<path d="M4771 4114 c0 -11 3 -14 6 -6 3 7 2 16 -1 19 -3 4 -6 -2 -5 -13z"/>
<path d="M10518 4063 c7 -3 16 -2 19 1 4 3 -2 6 -13 5 -11 0 -14 -3 -6 -6z"/>
<path d="M12520 3928 c-25 -5 -56 -14 -70 -20 -14 -6 -34 -14 -45 -18 -61 -21
-208 -98 -260 -135 -74 -53 -149 -130 -141 -143 3 -6 20 -13 36 -17 47 -10 88
-51 95 -93 20 -123 42 -172 104 -230 l46 -44 4 -116 c3 -113 -11 -296 -29
-357 -5 -16 -12 -50 -15 -74 -7 -42 -6 -43 16 -36 13 3 33 10 44 15 11 6 117
48 235 95 333 133 467 195 476 219 5 12 -50 127 -76 161 -5 6 -29 50 -54 100
l-45 90 26 27 c15 15 45 35 68 44 40 15 44 14 115 -10 40 -14 87 -26 104 -26
39 0 105 20 137 41 l24 17 -28 58 c-63 128 -132 230 -208 306 -108 108 -153
127 -341 148 -112 12 -156 11 -218 -2z"/>
<path d="M10137 3889 c-15 -17 -17 -26 -7 -52 13 -37 74 -97 127 -123 46 -23
193 -26 232 -5 l24 13 -24 19 c-13 10 -34 19 -45 19 -12 0 -24 7 -28 15 -3 9
-19 15 -41 15 -19 0 -34 3 -34 8 4 21 -5 30 -40 40 -21 7 -47 12 -58 12 -12 0
-23 8 -26 20 -3 11 -12 20 -21 20 -9 0 -16 5 -16 10 0 17 -25 11 -43 -11z"/>
<path d="M1309 3869 c16 -6 28 -6 35 1 7 7 -1 10 -24 9 -33 0 -34 -1 -11 -10z"/>
<path d="M5346 3735 c4 -8 8 -15 10 -15 2 0 4 7 4 15 0 8 -4 15 -10 15 -5 0
-7 -7 -4 -15z"/>
<path d="M2285 3669 c-9 -28 -3 -31 24 -12 18 12 20 17 10 24 -21 13 -27 11
-34 -12z"/>
<path d="M2020 3289 c0 -16 37 -66 43 -59 2 3 -7 20 -20 39 -12 19 -23 28 -23
20z"/>
<path d="M4044 3168 c-17 -26 -92 -233 -88 -240 11 -17 39 -6 80 32 24 22 54
40 66 40 26 1 65 26 48 32 -7 2 -6 15 5 40 8 21 15 42 15 48 0 10 -91 60 -109
60 -5 0 -13 -5 -17 -12z"/>
<path d="M716 3134 c-9 -24 -9 -24 30 -24 29 0 35 3 30 16 -3 9 -6 18 -6 20 0
12 -49 2 -54 -12z"/>
<path d="M1985 3118 c-9 -37 12 -58 58 -58 l29 0 -31 35 c-17 20 -31 40 -31
45 0 24 -19 7 -25 -22z"/>
<path d="M5846 3073 c-9 -9 -8 -43 2 -43 4 0 15 7 25 15 18 13 18 14 -1 24
-11 6 -22 7 -26 4z"/>
<path d="M2020 2970 c0 -6 35 -10 85 -10 50 0 85 4 85 10 0 6 -35 10 -85 10
-50 0 -85 -4 -85 -10z"/>
<path d="M2650 2669 c0 -71 2 -80 18 -77 14 3 17 16 20 81 3 72 1 77 -18 77
-18 0 -20 -6 -20 -81z"/>
<path d="M2742 2678 c3 -67 5 -73 26 -76 21 -3 22 0 22 72 0 75 0 76 -25 76
-26 0 -26 -1 -23 -72z"/>
<path d="M2848 2670 c3 -71 6 -80 23 -80 17 0 19 8 19 80 0 76 -1 80 -22 80
-22 0 -23 -3 -20 -80z"/>
<path d="M4921 2364 c-1 -17 -11 -24 -47 -33 -34 -9 -45 -16 -42 -29 4 -18 6
-18 111 -7 l58 7 -35 26 c-19 15 -37 34 -39 42 -3 9 -5 7 -6 -6z"/>
<path d="M1683 935 c-55 -39 -51 -150 7 -180 37 -19 70 -19 98 1 20 14 22 14
22 0 0 -9 5 -16 10 -16 6 0 10 25 10 55 l0 55 -35 0 c-19 0 -35 -4 -35 -10 0
-5 11 -10 25 -10 31 0 33 -22 5 -50 -20 -20 -54 -26 -85 -14 -26 10 -48 62
-41 100 13 66 80 90 129 47 9 -9 20 -13 25 -9 4 4 -4 16 -17 27 -28 23 -88 25
-118 4z"/>
<path d="M2060 921 c0 -16 -6 -32 -12 -34 -10 -4 -10 -6 0 -6 8 -1 12 -20 12
-59 0 -60 11 -82 42 -82 24 0 23 16 -2 23 -17 4 -20 14 -20 60 0 50 2 56 23
60 l22 4 -22 2 c-19 1 -23 7 -23 31 0 17 -4 30 -10 30 -5 0 -10 -13 -10 -29z"/>
<path d="M3367 943 c-4 -3 -7 -17 -7 -29 0 -13 -7 -24 -17 -27 -17 -4 -17 -5
0 -6 14 -1 17 -11 17 -71 0 -40 4 -70 10 -70 6 0 10 30 10 69 0 58 3 70 18 74
16 4 16 5 0 6 -10 0 -18 8 -18 17 0 9 8 23 18 30 16 12 16 13 -4 14 -11 0 -24
-3 -27 -7z"/>
<path d="M3770 940 c0 -5 7 -10 15 -10 8 0 15 5 15 10 0 6 -7 10 -15 10 -8 0
-15 -4 -15 -10z"/>
<path d="M4109 908 c-1 -24 -1 -61 0 -84 4 -67 -57 -89 -89 -31 -13 24 -13 30
1 55 12 21 22 27 47 26 18 -1 29 2 26 7 -9 15 -61 10 -78 -7 -23 -23 -21 -89
4 -114 22 -22 42 -25 71 -10 13 7 19 7 19 0 0 -5 5 -10 10 -10 6 0 10 42 10
105 0 63 -4 105 -10 105 -5 0 -11 -19 -11 -42z"/>
<path d="M4264 845 c0 -60 1 -91 3 -67 2 23 7 42 10 42 3 0 21 -18 40 -40 19
-22 42 -40 51 -40 11 0 3 14 -26 43 l-42 43 30 29 c42 40 29 44 -19 6 l-40
-32 -4 63 c-2 35 -3 14 -3 -47z"/>
<path d="M4980 940 c0 -5 5 -10 10 -10 6 0 10 5 10 10 0 6 -4 10 -10 10 -5 0
-10 -4 -10 -10z"/>
<path d="M5470 921 c0 -16 -6 -32 -12 -34 -10 -4 -10 -6 0 -6 8 -1 12 -20 12
-59 0 -60 11 -82 42 -82 24 0 23 16 -2 23 -17 4 -20 14 -20 60 0 50 2 56 23
60 l22 4 -22 2 c-19 1 -23 7 -23 31 0 17 -4 30 -10 30 -5 0 -10 -13 -10 -29z"/>
<path d="M5560 845 c0 -113 16 -145 22 -42 4 81 -2 147 -13 147 -5 0 -9 -47
-9 -105z"/>
<path d="M5900 921 c0 -20 -6 -31 -17 -34 -17 -4 -17 -5 0 -6 14 -1 17 -11 17
-65 0 -49 4 -65 16 -70 23 -9 34 -7 34 4 0 6 -7 10 -15 10 -24 0 -21 117 3
123 16 4 16 5 0 6 -13 1 -18 10 -18 31 0 17 -4 30 -10 30 -5 0 -10 -13 -10
-29z"/>
<path d="M6765 925 c-23 -22 -30 -49 -26 -100 4 -50 43 -85 96 -85 27 0 84 44
72 56 -4 4 -16 -2 -27 -14 -23 -24 -67 -29 -93 -9 -42 30 -37 124 8 153 26 17
58 12 88 -14 25 -22 32 -7 8 17 -30 30 -94 29 -126 -4z"/>
<path d="M7240 921 c0 -20 -6 -31 -17 -34 -17 -4 -17 -5 0 -6 14 -1 17 -11 17
-65 0 -49 4 -65 16 -70 23 -9 34 -7 34 4 0 6 -7 10 -15 10 -24 0 -21 117 3
123 16 4 16 5 0 6 -13 1 -18 10 -18 31 0 17 -4 30 -10 30 -5 0 -10 -13 -10
-29z"/>
<path d="M7320 940 c0 -5 7 -10 15 -10 8 0 15 5 15 10 0 6 -7 10 -15 10 -8 0
-15 -4 -15 -10z"/>
<path d="M7407 923 c-6 -16 -16 -31 -22 -35 -6 -5 -5 -8 3 -8 8 0 12 -21 12
-70 0 -40 4 -70 10 -70 6 0 10 30 10 69 0 64 2 70 23 74 l22 4 -22 2 c-29 1
-29 25 -1 45 l22 16 -22 0 c-15 0 -26 -9 -35 -27z"/>
<path d="M7490 940 c0 -5 5 -10 10 -10 6 0 10 5 10 10 0 6 -4 10 -10 10 -5 0
-10 -4 -10 -10z"/>
<path d="M7902 928 c-1 -15 -9 -31 -18 -36 -15 -8 -15 -10 0 -15 12 -5 16 -20
16 -66 0 -57 8 -71 41 -71 17 0 9 18 -11 23 -17 4 -20 14 -20 56 0 44 3 53 23
61 l22 9 -22 0 c-17 1 -23 8 -26 34 -3 28 -4 29 -5 5z"/>
<path d="M8910 845 c0 -113 16 -145 22 -42 4 81 -2 147 -13 147 -5 0 -9 -47
-9 -105z"/>
<path d="M9510 908 c0 -33 -3 -39 -12 -30 -21 21 -75 15 -92 -10 -45 -64 16
-156 78 -118 14 9 21 10 24 1 2 -6 8 -11 13 -11 5 0 9 47 9 105 0 63 -4 105
-10 105 -5 0 -10 -19 -10 -42z m-11 -60 c22 -38 5 -82 -32 -86 -37 -4 -57 13
-57 51 0 64 60 87 89 35z"/>
<path d="M9570 857 c0 -92 8 -117 37 -117 7 0 13 5 13 10 0 6 -7 10 -15 10
-12 0 -15 17 -15 95 0 57 -4 95 -10 95 -6 0 -10 -38 -10 -93z"/>
<path d="M9940 908 c0 -33 -3 -39 -12 -30 -7 7 -27 12 -45 12 -26 0 -36 -6
-49 -31 -36 -70 22 -143 87 -109 13 7 19 7 19 0 0 -5 5 -10 10 -10 6 0 10 42
10 105 0 63 -4 105 -10 105 -5 0 -10 -19 -10 -42z m-18 -45 c37 -34 16 -103
-32 -103 -47 0 -68 64 -33 102 20 22 41 23 65 1z"/>
<path d="M10080 845 c0 -93 9 -130 23 -92 4 10 7 10 18 0 36 -34 99 5 99 62 0
46 -25 75 -64 75 -17 0 -37 -5 -44 -12 -9 -9 -12 -3 -12 30 0 23 -4 42 -10 42
-6 0 -10 -42 -10 -105z m102 18 c20 -18 24 -73 6 -91 -7 -7 -24 -12 -40 -12
-45 0 -63 54 -32 98 18 26 41 28 66 5z"/>
<path d="M10500 844 l0 -106 54 4 c64 5 86 20 86 59 0 37 -33 59 -87 59 -43 0
-43 0 -43 36 l0 35 48 -3 c46 -3 47 -4 47 -36 0 -38 19 -37 23 2 5 42 -13 56
-74 56 l-54 0 0 -106z m120 -23 c21 -40 -13 -67 -76 -59 -30 3 -43 31 -30 64
9 23 93 19 106 -5z"/>
<path d="M10692 852 c-2 -85 1 -104 13 -109 23 -8 31 5 12 20 -13 9 -17 33
-20 102 l-3 90 -2 -103z"/>
<path d="M11110 845 c0 -63 4 -105 10 -105 6 0 10 19 10 42 l0 42 45 -44 c24
-24 47 -41 50 -39 2 3 -11 21 -30 39 -19 19 -35 39 -35 46 0 7 15 24 33 38 18
14 26 26 17 26 -8 0 -29 -14 -47 -32 l-33 -32 0 62 c0 35 -4 62 -10 62 -6 0
-10 -42 -10 -105z"/>
<path d="M11443 845 c0 -92 1 -100 7 -53 8 66 24 90 54 86 19 -3 21 -11 24
-70 2 -38 7 -68 12 -68 14 0 12 124 -2 138 -16 16 -65 15 -75 0 -5 -8 -10 4
-14 32 -4 28 -6 4 -6 -65z"/>
<path d="M11750 940 c0 -5 7 -10 15 -10 8 0 15 5 15 10 0 6 -7 10 -15 10 -8 0
-15 -4 -15 -10z"/>
<path d="M1886 868 c-35 -50 -7 -128 47 -128 26 0 67 26 67 42 0 6 -8 4 -18
-5 -35 -32 -92 -16 -92 25 0 15 9 18 60 18 66 0 77 13 40 50 -28 28 -84 27
-104 -2z m88 -4 c26 -26 18 -34 -34 -34 -37 0 -50 4 -50 15 0 32 58 45 84 19z"/>
<path d="M2230 784 c0 -67 4 -103 10 -99 6 3 10 22 10 41 0 31 2 34 19 24 29
-15 49 -12 71 10 25 25 27 91 4 114 -17 17 -69 22 -78 7 -3 -5 8 -8 26 -7 25
1 35 -5 47 -26 14 -25 14 -31 1 -55 -32 -58 -93 -36 -89 31 2 55 1 66 -11 66
-6 0 -10 -42 -10 -106z"/>
<path d="M2416 868 c-23 -33 -20 -75 9 -103 30 -30 68 -32 96 -4 25 25 17 39
-9 16 -25 -23 -69 -22 -82 2 -18 36 -12 41 50 41 52 0 60 3 60 18 0 50 -95 73
-124 30z m85 2 c38 -21 23 -40 -31 -40 -52 0 -60 8 -34 34 18 19 38 20 65 6z"/>
<path d="M2595 870 c-10 -11 -13 -20 -8 -20 6 0 16 7 23 15 15 18 42 19 58 3
22 -22 13 -35 -27 -42 -42 -6 -64 -26 -59 -52 5 -29 34 -40 68 -27 16 6 30 7
30 2 0 -5 5 -9 10 -9 13 0 13 106 0 131 -14 26 -71 26 -95 -1z m85 -68 c0 -26
-20 -42 -51 -42 -45 0 -45 36 1 53 31 11 50 7 50 -11z"/>
<path d="M2756 868 c-36 -51 -7 -128 48 -128 27 0 75 34 63 46 -4 4 -13 0 -20
-10 -19 -25 -68 -18 -83 13 -28 56 32 115 76 76 11 -10 23 -15 28 -11 12 13
-30 36 -64 36 -23 0 -38 -7 -48 -22z"/>
<path d="M2926 868 c-35 -50 -7 -128 47 -128 26 0 67 26 67 42 0 6 -8 4 -18
-5 -35 -32 -92 -16 -92 25 0 15 9 18 60 18 66 0 77 13 40 50 -28 28 -84 27
-104 -2z m88 -4 c26 -26 18 -34 -34 -34 -37 0 -50 4 -50 15 0 32 58 45 84 19z"/>
<path d="M3186 874 c-38 -38 -28 -104 18 -125 35 -16 73 -3 91 31 20 38 19 52
-6 84 -24 30 -78 36 -103 10z m84 -14 c37 -37 14 -100 -36 -100 -49 0 -72 64
-37 102 21 24 48 23 73 -2z"/>
<path d="M3520 815 c0 -91 17 -100 22 -12 4 67 1 87 -13 87 -5 0 -9 -34 -9
-75z"/>
<path d="M3555 880 c-4 -7 2 -9 18 -5 33 9 47 -17 47 -84 0 -28 5 -51 10 -51
6 0 10 26 10 59 0 66 18 93 48 74 12 -7 18 -27 20 -72 2 -33 7 -61 12 -61 14
0 12 124 -2 138 -15 15 -60 16 -75 1 -8 -8 -13 -8 -17 0 -9 14 -63 14 -71 1z"/>
<path d="M3783 815 c0 -44 2 -61 4 -37 2 23 2 59 0 80 -2 20 -4 1 -4 -43z"/>
<path d="M3840 815 c0 -43 4 -75 10 -75 6 0 10 26 10 58 0 60 11 82 41 82 25
0 33 -17 40 -85 6 -60 6 -60 5 15 -1 74 -1 75 -29 78 -16 2 -35 -2 -43 -9 -10
-8 -14 -8 -14 0 0 6 -4 11 -10 11 -6 0 -10 -32 -10 -75z"/>
<path d="M4410 815 c0 -43 4 -75 10 -75 6 0 10 23 10 51 0 58 13 89 38 89 31
0 42 -22 42 -82 0 -32 4 -58 10 -58 13 0 13 91 0 124 -7 20 -17 26 -38 26 -15
0 -33 -5 -40 -12 -9 -9 -12 -9 -12 0 0 7 -4 12 -10 12 -6 0 -10 -32 -10 -75z"/>
<path d="M4586 868 c-37 -53 -6 -128 52 -128 61 0 96 86 52 130 -28 28 -84 27
-104 -2z m86 -5 c22 -19 24 -76 4 -92 -43 -36 -105 15 -85 68 17 43 49 53 81
24z"/>
<path d="M4743 877 c3 -7 13 -41 22 -75 10 -34 21 -62 26 -62 4 0 15 24 24 53
10 28 21 56 25 60 3 4 15 -20 25 -53 10 -33 23 -59 28 -57 9 3 47 110 47 135
0 29 -19 -1 -30 -49 -7 -27 -15 -47 -19 -44 -3 4 -13 27 -22 53 -8 25 -20 47
-26 49 -6 2 -20 -22 -31 -54 -21 -60 -23 -60 -42 15 -6 23 -16 42 -21 42 -6 0
-9 -6 -6 -13z"/>
<path d="M4980 815 c0 -43 4 -75 10 -75 6 0 10 32 10 75 0 43 -4 75 -10 75 -6
0 -10 -32 -10 -75z"/>
<path d="M5040 815 c0 -91 17 -100 22 -12 4 67 1 87 -13 87 -5 0 -9 -34 -9
-75z"/>
<path d="M5074 879 c-4 -8 1 -9 15 -4 36 11 51 -11 51 -76 0 -33 4 -59 10 -59
13 0 13 106 0 131 -12 21 -64 27 -76 8z"/>
<path d="M5216 868 c-22 -31 -20 -70 5 -102 21 -26 62 -35 74 -16 3 6 10 10
16 10 13 0 11 -34 -3 -48 -15 -15 -61 -15 -76 0 -6 6 -15 9 -19 5 -11 -12 12
-27 49 -33 28 -5 40 -2 57 15 18 18 21 33 21 106 0 50 -4 85 -10 85 -5 0 -10
-5 -10 -12 0 -9 -3 -9 -12 0 -21 21 -75 15 -92 -10z m93 -20 c22 -39 5 -82
-34 -86 -50 -6 -75 59 -38 100 23 25 54 19 72 -14z"/>
<path d="M5594 879 c-4 -8 1 -9 15 -4 36 11 51 -11 51 -76 0 -33 4 -59 10 -59
13 0 13 106 0 131 -12 21 -64 27 -76 8z"/>
<path d="M5735 870 c-10 -11 -13 -20 -8 -20 6 0 16 7 23 15 15 18 42 19 58 3
22 -22 13 -35 -27 -42 -42 -6 -64 -26 -59 -52 5 -29 34 -40 68 -27 16 6 30 7
30 2 0 -5 5 -9 10 -9 13 0 13 106 0 131 -14 26 -71 26 -95 -1z m85 -68 c0 -26
-20 -42 -51 -42 -45 0 -45 36 1 53 31 11 50 7 50 -11z"/>
<path d="M6080 819 c17 -39 30 -76 30 -80 0 -5 -9 -18 -21 -30 -24 -24 -20
-35 8 -21 10 6 32 48 51 99 34 94 37 103 24 103 -5 0 -16 -25 -26 -55 -9 -30
-20 -55 -24 -55 -4 0 -16 23 -27 52 -11 28 -26 53 -32 55 -7 3 0 -26 17 -68z"/>
<path d="M6236 874 c-38 -38 -28 -104 18 -125 35 -16 73 -3 91 31 20 38 19 52
-6 84 -24 30 -78 36 -103 10z m84 -14 c37 -37 14 -100 -36 -100 -49 0 -72 64
-37 102 21 24 48 23 73 -2z"/>
<path d="M6401 829 c0 -39 4 -70 11 -77 16 -16 51 -15 66 0 10 10 15 10 22 -2
7 -10 9 11 9 65 -2 80 -2 80 -9 24 -9 -69 -15 -79 -45 -79 -30 0 -36 10 -45
79 l-7 56 -2 -66z"/>
<path d="M6560 815 c0 -91 17 -100 22 -12 4 67 1 87 -13 87 -5 0 -9 -34 -9
-75z"/>
<path d="M6595 880 c-8 -13 5 -13 25 0 13 8 13 10 -2 10 -9 0 -20 -4 -23 -10z"/>
<path d="M6974 882 c-16 -11 -34 -48 -34 -72 0 -29 44 -70 75 -70 14 0 34 9
46 21 25 25 17 39 -9 16 -25 -23 -69 -22 -82 2 -18 36 -12 41 50 41 52 0 60 3
60 18 0 39 -70 68 -106 44z m74 -14 c26 -26 13 -38 -38 -38 -54 0 -59 4 -33
32 18 21 53 24 71 6z"/>
<path d="M7131 810 l2 -75 6 58 c5 46 12 62 31 77 l25 19 -32 -2 -33 -2 1 -75z"/>
<path d="M7330 815 c0 -43 4 -75 10 -75 6 0 10 32 10 75 0 43 -4 75 -10 75 -6
0 -10 -32 -10 -75z"/>
<path d="M7490 815 c0 -43 4 -75 10 -75 6 0 10 32 10 75 0 43 -4 75 -10 75 -6
0 -10 -32 -10 -75z"/>
<path d="M7566 868 c-36 -51 -7 -128 48 -128 27 0 75 34 63 46 -4 4 -13 0 -20
-10 -19 -25 -68 -18 -83 13 -28 56 32 115 76 76 11 -10 23 -15 28 -11 12 13
-30 36 -64 36 -23 0 -38 -7 -48 -22z"/>
<path d="M7735 870 c-10 -11 -13 -20 -8 -20 6 0 16 7 23 15 15 18 42 19 58 3
22 -22 13 -35 -27 -42 -42 -6 -64 -26 -59 -52 5 -29 34 -40 68 -27 16 6 30 7
30 2 0 -5 5 -9 10 -9 13 0 13 106 0 131 -14 26 -71 26 -95 -1z m85 -68 c0 -26
-20 -42 -51 -42 -45 0 -45 36 1 53 31 11 50 7 50 -11z"/>
<path d="M7996 868 c-23 -33 -20 -75 9 -103 30 -30 68 -32 96 -4 25 25 17 39
-9 16 -25 -23 -69 -22 -82 2 -18 36 -12 41 50 41 52 0 60 3 60 18 0 50 -95 73
-124 30z m85 2 c38 -21 23 -40 -31 -40 -52 0 -60 8 -34 34 18 19 38 20 65 6z"/>
<path d="M8172 878 c-24 -24 -13 -47 28 -59 44 -13 65 -32 55 -49 -10 -16 -56
-12 -77 7 -26 23 -34 9 -9 -16 28 -28 75 -27 95 1 21 29 5 54 -41 65 -28 6
-38 14 -38 28 0 26 37 32 59 9 20 -20 34 -11 16 11 -15 18 -71 20 -88 3z"/>
<path d="M8410 875 c-7 -9 -10 -18 -6 -22 3 -4 12 2 20 12 17 24 66 13 66 -14
0 -14 -10 -20 -39 -25 -42 -6 -64 -26 -59 -52 5 -29 34 -40 68 -27 16 6 30 7
30 2 0 -5 5 -9 10 -9 14 0 13 123 -2 138 -17 17 -73 15 -88 -3z m80 -73 c0
-26 -20 -42 -53 -42 -24 0 -28 4 -25 22 2 14 13 25 28 29 41 11 50 10 50 -9z"/>
<path d="M8561 810 l2 -75 6 58 c5 46 12 62 31 77 l25 19 -32 -2 -33 -2 1 -75z"/>
<path d="M8684 882 c-16 -11 -34 -48 -34 -72 0 -29 44 -70 75 -70 14 0 34 9
46 21 25 25 17 39 -9 16 -25 -23 -69 -22 -82 2 -18 36 -12 41 50 41 52 0 60 3
60 18 0 39 -70 68 -106 44z m74 -14 c26 -26 13 -38 -38 -38 -54 0 -59 4 -33
32 18 21 53 24 71 6z"/>
<path d="M8944 879 c-4 -8 1 -9 15 -4 36 11 51 -11 51 -76 0 -33 4 -59 10 -59
13 0 13 106 0 131 -12 21 -64 27 -76 8z"/>
<path d="M9085 870 c-10 -11 -13 -20 -8 -20 6 0 16 7 23 15 15 18 42 19 58 3
22 -22 13 -35 -27 -42 -42 -6 -64 -26 -59 -52 5 -29 34 -40 68 -27 16 6 30 7
30 2 0 -5 5 -9 10 -9 13 0 13 106 0 131 -14 26 -71 26 -95 -1z m85 -68 c0 -26
-20 -42 -51 -42 -45 0 -45 36 1 53 31 11 50 7 50 -11z"/>
<path d="M9242 815 c1 -77 1 -78 7 -24 7 63 25 91 55 87 19 -3 21 -11 24 -70
2 -38 7 -68 12 -68 14 0 12 124 -2 138 -15 15 -65 16 -74 1 -4 -8 -9 -7 -15 2
-5 9 -8 -18 -7 -66z"/>
<path d="M9667 873 c-41 -47 -11 -133 47 -133 28 0 75 35 63 47 -5 4 -13 0
-18 -10 -14 -25 -64 -22 -83 5 -22 31 -12 38 55 38 32 0 59 3 59 6 0 11 -23
49 -34 56 -20 14 -73 8 -89 -9z m85 -10 c29 -26 22 -33 -32 -33 -51 0 -64 12
-38 38 17 17 48 15 70 -5z"/>
<path d="M10250 887 c0 -2 11 -31 25 -65 31 -76 32 -112 5 -119 -11 -3 -20 -9
-20 -14 0 -11 21 -11 37 -1 16 10 86 202 74 202 -5 0 -18 -24 -29 -52 -11 -29
-23 -52 -28 -51 -4 1 -16 24 -26 52 -11 28 -24 51 -29 51 -5 0 -9 -1 -9 -3z"/>
<path d="M10776 868 c-37 -53 -6 -128 52 -128 61 0 96 86 52 130 -28 28 -84
27 -104 -2z m86 -5 c22 -19 24 -76 4 -92 -43 -36 -105 15 -85 68 17 43 49 53
81 24z"/>
<path d="M10956 868 c-36 -51 -7 -128 48 -128 27 0 75 34 63 46 -4 4 -13 0
-20 -10 -19 -25 -68 -18 -83 13 -28 56 32 115 76 76 11 -10 23 -15 28 -11 12
13 -30 36 -64 36 -23 0 -38 -7 -48 -22z"/>
<path d="M11294 882 c-16 -11 -34 -48 -34 -72 0 -29 44 -70 75 -70 14 0 34 9
46 21 25 25 17 39 -9 16 -39 -35 -92 -10 -92 42 0 29 27 61 51 61 8 0 25 -7
37 -16 23 -16 30 -6 10 14 -13 13 -67 16 -84 4z"/>
<path d="M11610 875 c-18 -22 -5 -31 15 -11 22 22 52 20 65 -4 12 -22 11 -23
-45 -35 -38 -8 -55 -23 -55 -46 0 -29 43 -45 77 -30 21 10 28 9 34 -1 5 -8 9
14 9 53 0 37 -5 70 -12 77 -17 17 -73 15 -88 -3z m90 -63 c0 -4 -7 -18 -16
-30 -11 -16 -24 -22 -42 -20 -36 4 -37 39 -2 49 35 10 60 10 60 1z"/>
<path d="M11760 815 c0 -43 4 -75 10 -75 6 0 10 32 10 75 0 43 -4 75 -10 75
-6 0 -10 -32 -10 -75z"/>
<path d="M11820 815 c0 -43 4 -75 10 -75 6 0 10 23 10 51 0 58 13 89 38 89 31
0 42 -22 42 -82 0 -32 4 -58 10 -58 13 0 13 91 0 124 -7 20 -17 26 -38 26 -15
0 -33 -5 -40 -12 -9 -9 -12 -9 -12 0 0 7 -4 12 -10 12 -6 0 -10 -32 -10 -75z"/>
<path d="M11985 759 c-10 -15 3 -25 16 -12 7 7 7 13 1 17 -6 3 -14 1 -17 -5z"/>
</g>
</svg>
