<?xml version="1.0" standalone="no"?>
<!DOCTYPE svg PUBLIC "-//W3C//DTD SVG 20010904//EN"
 "http://www.w3.org/TR/2001/REC-SVG-20010904/DTD/svg10.dtd">
<svg version="1.0" xmlns="http://www.w3.org/2000/svg"
 width="1366.000000pt" height="768.000000pt" viewBox="0 0 1366.000000 768.000000"
 preserveAspectRatio="xMidYMid meet">

<g transform="translate(0.000000,768.000000) scale(0.100000,-0.100000)"
fill="#000000" stroke="none">
<path d="M4388 7444 c18 -14 45 -49 60 -77 24 -46 27 -63 27 -152 0 -89 -3
-106 -27 -151 -63 -121 -164 -146 -246 -61 -46 47 -65 101 -72 202 l-7 90 -1
-76 c-2 -72 16 -156 41 -186 5 -7 6 -13 3 -13 -14 0 31 -39 69 -59 64 -34 122
-24 186 31 64 56 90 242 49 352 -19 49 -85 126 -108 126 -4 0 8 -12 26 -26z"/>
<path d="M4194 7428 l-29 -33 33 29 c30 28 37 36 29 36 -2 0 -16 -15 -33 -32z"/>
<path d="M5230 7240 l0 -220 55 0 55 0 0 51 c0 39 6 58 26 85 15 19 30 34 34
34 4 0 32 -38 64 -85 l56 -85 66 0 65 0 -86 126 c-47 70 -85 130 -83 135 2 4
36 44 76 88 39 44 72 82 72 85 0 3 -26 6 -58 6 l-59 0 -84 -96 -84 -96 -3 96
-3 96 -54 0 -55 0 0 -220z"/>
<path d="M6000 7240 l0 -220 55 0 55 0 0 58 c0 52 3 61 30 87 20 19 33 26 38
19 4 -6 30 -45 57 -87 l50 -77 63 0 c34 0 62 2 62 5 0 3 -36 59 -80 125 -44
66 -80 123 -80 127 0 4 34 46 76 93 l76 85 -58 3 c-66 4 -54 12 -181 -132
l-53 -60 0 97 0 97 -55 0 -55 0 0 -220z"/>
<path d="M6730 7453 c0 -4 32 -104 71 -221 l71 -213 56 3 56 3 40 148 c22 82
43 142 47 135 4 -7 21 -67 38 -133 18 -66 34 -128 37 -138 5 -15 15 -17 62
-15 l55 3 73 218 73 218 -57 -3 -56 -3 -40 -152 c-22 -84 -43 -153 -46 -153
-4 0 -25 69 -46 153 l-40 152 -55 0 -54 0 -39 -152 c-22 -84 -43 -153 -46
-153 -4 0 -25 69 -46 153 l-40 152 -57 3 c-31 2 -57 -1 -57 -5z"/>
<path d="M7502 7247 c-51 -117 -92 -216 -92 -220 0 -4 24 -7 53 -7 l54 0 13
40 13 40 102 0 102 0 13 -40 13 -40 59 0 58 0 -13 33 c-8 17 -50 116 -93 220
l-79 187 -55 0 -56 0 -92 -213z m177 22 c17 -44 31 -83 31 -85 0 -2 -30 -4
-66 -4 -59 0 -65 2 -60 18 23 61 60 152 62 152 1 0 16 -36 33 -81z"/>
<path d="M8030 7433 c-75 -40 -112 -94 -118 -173 -3 -42 1 -74 13 -105 19 -51
80 -108 132 -126 50 -16 159 -7 216 18 l47 22 0 85 0 86 -45 0 -45 0 0 -55 c0
-50 -2 -56 -26 -65 -14 -6 -44 -10 -66 -10 -34 0 -47 6 -79 39 -35 35 -39 44
-39 91 0 47 4 56 39 91 33 34 45 39 83 39 24 0 61 -9 83 -20 l40 -21 28 31
c15 17 27 34 27 39 0 21 -96 56 -165 59 -62 3 -77 0 -125 -25z"/>
<path d="M8400 7240 l0 -220 55 0 55 0 0 85 0 85 95 0 95 0 0 -85 0 -85 55 0
55 0 0 220 0 220 -55 0 -55 0 0 -90 0 -90 -95 0 -95 0 0 90 0 90 -55 0 -55 0
0 -220z"/>
<path d="M4155 7379 c-4 -6 -5 -12 -2 -15 2 -3 7 2 10 11 7 17 1 20 -8 4z"/>
<path d="M4278 7338 c-16 -16 -28 -34 -28 -40 0 -12 66 41 74 60 10 22 -18 10
-46 -20z"/>
<path d="M4350 7336 c-29 -28 -48 -56 -37 -56 2 0 23 20 47 45 51 52 42 61
-10 11z"/>
<path d="M4136 7335 c-3 -9 -6 -22 -5 -28 0 -7 5 -1 10 12 5 13 8 26 5 28 -2
2 -6 -3 -10 -12z"/>
<path d="M4219 7233 c3 -47 5 -54 12 -34 6 15 14 21 24 17 10 -4 15 1 15 16 0
21 0 21 -21 2 l-22 -19 5 38 c2 22 0 37 -7 37 -6 0 -9 -22 -6 -57z"/>
<path d="M4326 7254 c-8 -20 -8 -24 2 -24 4 0 8 9 9 20 2 24 -3 26 -11 4z"/>
<path d="M4285 7248 c-4 -9 -2 -24 3 -34 8 -15 10 -14 14 4 7 27 -8 53 -17 30z"/>
<path d="M4330 7174 c0 -13 5 -24 11 -24 5 0 7 -5 3 -12 -4 -7 -3 -8 4 -4 8 5
9 13 2 25 -16 30 2 33 22 4 10 -16 18 -23 18 -17 0 17 -26 47 -44 50 -11 1
-16 -5 -16 -22z"/>
<path d="M4299 7157 c6 -8 9 -17 6 -21 -3 -3 0 -2 6 3 12 10 4 31 -13 31 -7 0
-7 -4 1 -13z"/>
<path d="M4280 7089 c0 -25 -5 -50 -12 -57 -9 -9 -8 -12 8 -12 17 0 19 6 17
52 -4 65 -13 77 -13 17z"/>
<path d="M5700 7100 c-23 -23 -24 -33 -10 -61 12 -22 59 -26 78 -7 19 19 15
66 -7 78 -28 14 -38 13 -61 -10z"/>
<path d="M6465 7100 c-15 -16 -17 -26 -9 -48 17 -50 94 -39 94 14 0 49 -52 70
-85 34z"/>
<path d="M4340 7096 c0 -2 7 -9 15 -16 13 -11 14 -10 9 4 -5 14 -24 23 -24 12z"/>
<path d="M4068 7063 c7 -3 16 -2 19 1 4 3 -2 6 -13 5 -11 0 -14 -3 -6 -6z"/>
<path d="M4555 7057 c25 -9 62 -35 96 -70 31 -32 60 -57 66 -57 6 0 -19 29
-55 64 -53 51 -75 66 -107 70 l-40 6 40 -13z"/>
<path d="M3958 7000 c-33 -33 -65 -60 -71 -60 -6 0 -8 -3 -5 -6 11 -10 52 18
92 64 22 24 49 48 60 52 19 8 19 9 2 9 -10 1 -45 -26 -78 -59z"/>
<path d="M4108 7053 c7 -3 16 -2 19 1 4 3 -2 6 -13 5 -11 0 -14 -3 -6 -6z"/>
<path d="M4595 7008 c16 -25 15 -28 -5 -48 l-22 -22 24 4 c31 4 35 38 8 69
l-21 24 16 -27z"/>
<path d="M4000 6991 c-14 -35 -7 -51 23 -51 20 0 20 1 2 13 -13 10 -16 21 -11
40 9 36 1 34 -14 -2z"/>
<path d="M3778 7003 c-24 -6 -23 -40 1 -53 30 -16 36 -12 16 10 -15 16 -15 22
-5 35 7 8 11 14 9 14 -2 -1 -12 -3 -21 -6z"/>
<path d="M4085 6980 c0 -25 2 -27 14 -15 7 7 11 21 8 29 -10 26 -22 18 -22
-14z"/>
<path d="M4505 7000 c-3 -5 -1 -19 5 -30 14 -26 20 -26 13 1 -4 12 0 25 8 30
11 7 11 9 -3 9 -9 0 -20 -4 -23 -10z"/>
<path d="M4820 6995 c8 -10 8 -19 0 -35 -11 -20 -10 -21 9 -10 27 14 27 46 0
53 -16 4 -18 3 -9 -8z"/>
<path d="M4146 6981 c-10 -15 20 -45 35 -35 15 9 10 24 -5 18 -9 -3 -16 2 -18
13 -3 14 -5 15 -12 4z"/>
<path d="M4453 6978 c1 -7 -3 -12 -10 -13 -6 0 -15 -4 -20 -8 -4 -5 3 -7 17
-5 24 3 43 38 21 38 -6 0 -10 -5 -8 -12z"/>
<path d="M3845 6970 c-3 -5 -1 -10 4 -10 6 0 11 5 11 10 0 6 -2 10 -4 10 -3 0
-8 -4 -11 -10z"/>
<path d="M3370 6665 c0 -43 4 -75 10 -75 6 0 10 32 10 75 0 43 -4 75 -10 75
-6 0 -10 -32 -10 -75z"/>
<path d="M3440 6665 c0 -82 17 -104 22 -27 l3 47 25 -47 c36 -71 50 -63 50 27
0 43 -4 75 -10 75 -5 0 -10 -21 -10 -47 l-1 -48 -25 48 c-37 72 -54 63 -54
-28z"/>
<path d="M3590 6720 c-16 -30 -7 -47 35 -64 38 -16 45 -33 19 -43 -10 -4 -22
1 -29 10 -13 18 -35 23 -35 8 0 -18 31 -41 55 -41 21 0 55 23 55 36 0 18 -24
43 -50 52 -33 12 -39 29 -14 39 10 4 22 -1 29 -10 17 -24 27 -21 23 6 -4 32
-72 38 -88 7z"/>
<path d="M3720 6730 c0 -5 7 -10 15 -10 12 0 15 -14 15 -65 0 -51 3 -65 15
-65 12 0 15 14 15 65 0 51 3 65 15 65 8 0 15 5 15 10 0 6 -20 10 -45 10 -25 0
-45 -4 -45 -10z"/>
<path d="M3850 6665 c0 -60 3 -75 15 -75 12 0 15 15 15 75 0 60 -3 75 -15 75
-12 0 -15 -15 -15 -75z"/>
<path d="M3910 6731 c0 -5 9 -11 20 -14 17 -4 20 -14 20 -66 0 -48 3 -61 15
-61 12 0 15 14 15 65 0 51 3 65 15 65 8 0 15 5 15 10 0 6 -22 10 -50 10 -27 0
-50 -4 -50 -9z"/>
<path d="M4040 6684 c0 -71 12 -94 50 -94 45 0 60 23 60 91 0 45 -3 59 -15 59
-10 0 -15 -16 -17 -62 -3 -55 -5 -63 -23 -63 -18 0 -20 8 -23 63 -2 46 -7 62
-17 62 -11 0 -15 -14 -15 -56z"/>
<path d="M4180 6731 c0 -5 9 -11 20 -14 17 -4 20 -14 20 -66 0 -34 4 -61 10
-61 6 0 10 27 10 61 0 52 3 62 20 66 37 10 20 23 -30 23 -27 0 -50 -4 -50 -9z"/>
<path d="M4310 6665 l0 -75 45 0 c33 0 45 4 45 15 0 10 -10 15 -30 15 -23 0
-30 4 -30 20 0 15 7 20 25 20 14 0 25 5 25 10 0 6 -11 10 -25 10 -18 0 -25 5
-25 20 0 16 7 20 30 20 17 0 30 5 30 10 0 6 -20 10 -45 10 l-45 0 0 -75z"/>
<path d="M4506 6718 c-32 -46 -9 -128 35 -128 45 0 59 18 59 73 0 29 -5 58
-12 65 -20 20 -65 14 -82 -10z m64 -24 c11 -27 4 -70 -12 -80 -16 -10 -38 17
-38 46 0 61 32 83 50 34z"/>
<path d="M4640 6665 c0 -60 3 -75 15 -75 10 0 15 11 15 35 0 31 3 35 25 35 14
0 25 5 25 10 0 6 -11 10 -25 10 -18 0 -25 5 -25 20 0 16 7 20 30 20 17 0 30 5
30 10 0 6 -20 10 -45 10 l-45 0 0 -75z"/>
<path d="M4820 6665 l0 -75 46 0 c50 0 59 22 11 28 -37 4 -38 42 -2 42 14 0
25 5 25 10 0 6 -11 10 -25 10 -18 0 -25 5 -25 20 0 16 7 20 30 20 17 0 30 5
30 10 0 6 -20 10 -45 10 l-45 0 0 -75z"/>
<path d="M4950 6665 c0 -43 4 -75 10 -75 6 0 10 21 10 48 l1 47 27 -47 c39
-70 52 -63 52 27 0 82 -17 104 -22 28 l-3 -48 -25 48 c-36 70 -50 62 -50 -28z"/>
<path d="M5106 6718 c-34 -47 -9 -128 39 -128 43 0 55 10 55 46 0 30 -3 34
-25 34 -14 0 -25 -4 -25 -10 0 -5 5 -10 10 -10 13 0 13 -27 0 -35 -34 -21 -56
69 -24 96 14 11 18 11 29 -4 14 -20 35 -22 35 -4 0 40 -69 51 -94 15z"/>
<path d="M5240 6665 c0 -60 3 -75 15 -75 12 0 15 15 15 75 0 60 -3 75 -15 75
-12 0 -15 -15 -15 -75z"/>
<path d="M5310 6665 c0 -60 3 -75 15 -75 11 0 15 12 15 48 l1 47 25 -47 c37
-73 54 -64 54 27 0 60 -3 75 -15 75 -11 0 -15 -12 -16 -42 l0 -43 -22 43 c-13
26 -28 42 -39 42 -16 0 -18 -9 -18 -75z"/>
<path d="M5460 6665 l0 -75 45 0 c33 0 45 4 45 15 0 10 -10 15 -30 15 -23 0
-30 4 -30 20 0 15 7 20 25 20 14 0 25 5 25 10 0 6 -11 10 -25 10 -18 0 -25 5
-25 20 0 16 7 20 30 20 17 0 30 5 30 10 0 6 -20 10 -45 10 l-45 0 0 -75z"/>
<path d="M5590 6665 l0 -75 46 0 c50 0 59 22 11 28 -37 4 -38 42 -2 42 14 0
25 5 25 10 0 6 -11 10 -25 10 -18 0 -25 5 -25 20 0 16 7 20 30 20 17 0 30 5
30 10 0 6 -20 10 -45 10 l-45 0 0 -75z"/>
<path d="M5720 6665 c0 -43 4 -75 10 -75 6 0 10 11 10 24 0 38 19 41 31 7 6
-17 17 -31 25 -31 17 0 17 1 4 34 -6 16 -6 27 0 31 14 9 12 59 -2 73 -7 7 -27
12 -45 12 l-33 0 0 -75z m57 44 c16 -16 5 -39 -18 -39 -12 0 -19 7 -19 18 0
31 17 41 37 21z"/>
<path d="M5850 6665 c0 -60 3 -75 15 -75 12 0 15 15 15 75 0 60 -3 75 -15 75
-12 0 -15 -15 -15 -75z"/>
<path d="M5920 6665 c0 -60 3 -75 15 -75 11 0 15 12 15 48 l1 47 25 -47 c37
-73 54 -64 54 27 0 60 -3 75 -15 75 -11 0 -15 -12 -16 -42 l0 -43 -22 43 c-13
26 -28 42 -39 42 -16 0 -18 -9 -18 -75z"/>
<path d="M6086 6724 c-23 -22 -21 -96 2 -117 10 -10 28 -17 39 -17 40 0 53 11
53 46 0 30 -3 34 -25 34 -14 0 -25 -4 -25 -10 0 -5 5 -10 10 -10 12 0 13 -27
1 -34 -23 -15 -41 7 -41 50 0 50 23 70 45 41 15 -20 35 -22 35 -4 0 36 -65 51
-94 21z"/>
<path d="M6280 6665 l0 -75 40 0 c29 0 40 4 40 15 0 10 -10 15 -31 15 -24 0
-30 4 -27 18 2 9 13 18 26 20 31 5 28 22 -4 22 -36 0 -29 34 9 38 42 5 32 22
-13 22 l-40 0 0 -75z"/>
<path d="M6400 6665 l0 -75 33 0 c52 0 72 21 72 75 0 54 -20 75 -72 75 l-33 0
0 -75z m61 45 c32 -18 23 -90 -12 -90 -16 0 -19 8 -19 50 0 54 1 55 31 40z"/>
<path d="M6543 6674 c5 -70 14 -84 58 -84 39 0 49 18 49 87 0 49 -3 63 -15 63
-12 0 -15 -13 -15 -59 0 -62 -7 -75 -34 -65 -12 5 -16 20 -16 65 0 48 -3 59
-16 59 -14 0 -16 -9 -11 -66z"/>
<path d="M6702 6728 c-18 -18 -15 -103 4 -123 20 -20 63 -16 78 7 15 25 -1 34
-24 13 -30 -27 -45 -5 -41 63 1 30 28 40 46 16 16 -23 34 -10 19 14 -13 21
-65 27 -82 10z"/>
<path d="M6846 6676 c-20 -80 -20 -86 -1 -86 8 0 15 7 15 15 0 8 9 15 20 15
11 0 23 -7 26 -15 4 -8 12 -15 20 -15 11 0 13 7 7 28 -28 113 -30 117 -50 120
-17 3 -23 -6 -37 -62z m42 -25 c-15 -6 -20 7 -12 31 l8 23 6 -25 c3 -14 2 -27
-2 -29z"/>
<path d="M6970 6730 c0 -5 7 -10 15 -10 12 0 15 -14 15 -65 0 -51 3 -65 15
-65 12 0 15 14 15 65 0 58 2 65 20 65 11 0 20 5 20 10 0 6 -22 10 -50 10 -27
0 -50 -4 -50 -10z"/>
<path d="M7100 6665 c0 -60 3 -75 15 -75 12 0 15 15 15 75 0 60 -3 75 -15 75
-12 0 -15 -15 -15 -75z"/>
<path d="M7182 6728 c-18 -18 -15 -103 4 -122 24 -24 61 -20 80 9 19 29 14
102 -8 116 -19 13 -62 11 -76 -3z m62 -24 c18 -47 -9 -113 -35 -87 -12 12 -15
75 -4 92 9 16 32 13 39 -5z"/>
<path d="M7320 6665 c0 -43 4 -75 10 -75 6 0 10 21 10 48 l1 47 27 -47 c39
-70 52 -63 52 27 0 82 -17 104 -22 28 l-3 -48 -25 48 c-36 70 -50 62 -50 -28z"/>
<path d="M7540 6698 c-6 -24 -15 -58 -20 -75 -7 -26 -5 -33 6 -33 8 0 17 7 20
15 4 8 14 15 24 15 10 0 20 -7 24 -15 3 -8 12 -15 20 -15 11 0 13 7 6 33 -5
17 -14 51 -20 75 -8 31 -16 42 -30 42 -14 0 -22 -11 -30 -42z m40 -28 c0 -11
-4 -20 -10 -20 -5 0 -10 9 -10 20 0 11 5 20 10 20 6 0 10 -9 10 -20z"/>
<path d="M7660 6665 c0 -60 3 -75 15 -75 11 0 15 11 15 43 l0 42 26 -42 c39
-66 54 -57 54 32 0 60 -3 75 -15 75 -11 0 -15 -12 -15 -47 l-1 -48 -25 48
c-37 72 -54 63 -54 -28z"/>
<path d="M7810 6665 c0 -73 1 -75 24 -75 14 0 36 4 50 10 24 9 26 15 26 64 0
62 -13 76 -69 76 l-31 0 0 -75z m64 39 c28 -27 17 -84 -15 -84 -16 0 -19 8
-19 50 0 52 8 60 34 34z"/>
<path d="M8010 6665 c0 -59 3 -75 14 -75 9 0 16 13 19 33 l4 32 13 -32 c8 -18
20 -33 27 -33 15 0 17 19 4 39 -6 10 -5 22 5 35 8 11 14 26 14 33 0 22 -31 43
-66 43 l-34 0 0 -75z m59 46 c17 -11 7 -41 -14 -41 -9 0 -15 9 -15 25 0 27 6
30 29 16z"/>
<path d="M8150 6665 l0 -75 40 0 c29 0 40 4 40 15 0 10 -10 15 -31 15 -24 0
-30 4 -27 18 2 9 13 18 26 20 31 5 28 22 -4 22 -36 0 -29 34 9 38 42 5 32 22
-13 22 l-40 0 0 -75z"/>
<path d="M8281 6726 c-20 -24 -8 -50 33 -69 36 -17 38 -19 22 -35 -16 -16 -18
-16 -30 1 -15 20 -36 23 -36 4 0 -21 22 -37 51 -37 58 0 68 68 12 85 -33 9
-43 28 -22 40 5 4 19 -1 30 -11 22 -20 38 -11 23 14 -14 22 -67 27 -83 8z"/>
<path d="M8410 6665 l0 -75 45 0 c33 0 45 4 45 15 0 10 -10 15 -30 15 -23 0
-30 4 -30 20 0 15 7 20 25 20 14 0 25 5 25 10 0 6 -11 10 -25 10 -18 0 -25 5
-25 20 0 16 7 20 30 20 17 0 30 5 30 10 0 6 -20 10 -45 10 l-45 0 0 -75z"/>
<path d="M8565 6728 c-2 -7 -9 -33 -15 -58 -6 -25 -13 -53 -16 -62 -4 -12 0
-18 10 -18 9 0 16 7 16 15 0 9 9 15 25 15 16 0 25 -6 25 -15 0 -8 7 -15 15
-15 19 0 19 6 -1 85 -13 52 -20 65 -36 65 -10 0 -21 -6 -23 -12z m35 -65 c0
-7 -6 -13 -14 -13 -9 0 -12 8 -8 26 3 19 7 22 13 12 5 -7 9 -19 9 -25z"/>
<path d="M8680 6665 c0 -60 3 -75 15 -75 10 0 15 10 15 30 0 17 4 30 9 30 5 0
14 -13 20 -30 5 -16 17 -30 25 -30 13 0 14 4 4 26 -9 20 -9 30 0 45 29 45 4
79 -57 79 l-31 0 0 -75z m65 30 c0 -11 -8 -21 -17 -23 -14 -3 -18 3 -18 23 0
20 4 26 18 23 9 -2 17 -12 17 -23z"/>
<path d="M8830 6725 c-16 -20 -16 -101 0 -120 24 -29 90 -13 90 22 0 19 -20
16 -36 -4 -13 -17 -15 -17 -29 1 -20 26 -19 70 1 87 14 11 18 11 29 -4 14 -20
35 -22 35 -4 0 35 -66 51 -90 22z"/>
<path d="M8960 6665 c0 -60 3 -75 15 -75 10 0 15 11 15 35 0 28 4 35 20 35 16
0 20 -7 20 -35 0 -24 5 -35 15 -35 12 0 15 15 15 75 0 60 -3 75 -15 75 -10 0
-15 -10 -15 -30 0 -23 -4 -30 -20 -30 -16 0 -20 7 -20 30 0 20 -5 30 -15 30
-12 0 -15 -15 -15 -75z"/>
<path d="M9230 6665 c0 -43 4 -75 10 -75 6 0 10 21 10 48 l1 47 27 -47 c39
-70 52 -63 52 27 0 82 -17 104 -22 28 l-3 -48 -25 48 c-36 70 -50 62 -50 -28z"/>
<path d="M9391 6688 c-6 -29 -14 -63 -17 -75 -5 -17 -2 -23 10 -23 9 0 16 7
16 15 0 9 9 15 25 15 16 0 25 -6 25 -15 0 -8 7 -15 16 -15 12 0 15 6 10 23 -3
12 -11 46 -17 75 -10 43 -16 52 -34 52 -18 0 -24 -9 -34 -52z m48 -30 c1 -5
-6 -8 -15 -8 -11 0 -14 5 -10 16 3 9 6 21 7 27 0 12 17 -20 18 -35z"/>
<path d="M9520 6720 c-16 -30 -7 -47 35 -64 38 -16 45 -33 19 -43 -10 -4 -22
1 -29 10 -13 18 -35 23 -35 8 0 -18 31 -41 55 -41 21 0 55 23 55 36 0 18 -24
43 -50 52 -33 12 -39 29 -14 39 10 4 22 -1 29 -10 17 -24 27 -21 23 6 -4 32
-72 38 -88 7z"/>
<path d="M9650 6665 c0 -60 3 -75 15 -75 11 0 15 11 15 36 0 31 3 35 23 32 17
-2 23 -11 25 -35 2 -21 9 -33 18 -33 11 0 14 16 14 75 0 60 -3 75 -15 75 -10
0 -15 -10 -15 -30 0 -25 -4 -30 -25 -30 -21 0 -25 5 -25 30 0 20 -5 30 -15 30
-12 0 -15 -15 -15 -75z"/>
<path d="M9800 6665 c0 -60 3 -75 15 -75 12 0 15 15 15 75 0 60 -3 75 -15 75
-12 0 -15 -15 -15 -75z"/>
<path d="M9870 6665 c0 -60 3 -75 15 -75 9 0 15 9 15 24 0 37 16 40 30 6 7
-17 19 -30 26 -30 18 0 18 3 -6 51 l-21 40 21 29 c29 40 1 42 -29 3 l-20 -28
-1 28 c0 17 -5 27 -15 27 -12 0 -15 -15 -15 -75z"/>
<path d="M9100 6605 c0 -8 6 -15 13 -15 8 0 7 -4 -3 -11 -13 -9 -13 -10 0 -6
21 5 26 47 6 47 -9 0 -16 -7 -16 -15z"/>
<path d="M2178 4987 c-49 -19 -48 -82 3 -124 23 -20 26 -28 18 -41 -10 -17 7
-83 52 -198 12 -29 10 -33 -25 -65 -28 -25 -38 -43 -39 -68 -2 -32 1 -36 62
-67 118 -60 198 -167 221 -294 12 -63 32 -95 81 -128 33 -23 74 -25 123 -6 11
4 17 -5 25 -38 6 -23 28 -95 49 -158 l37 -115 50 3 c47 3 49 2 31 -13 -12 -9
-40 -15 -73 -15 -30 0 -68 -7 -84 -16 -21 -10 -34 -12 -42 -5 -7 5 -30 11 -52
13 l-40 3 -3 -77 -3 -76 -113 -4 c-128 -3 -140 -9 -179 -83 -18 -33 -22 -57
-22 -135 0 -120 21 -173 73 -178 24 -2 32 -8 32 -23 0 -18 11 -19 405 -19 263
0 405 -3 405 -10 0 -15 70 -12 75 3 18 53 49 49 -427 47 -298 -1 -444 2 -458
10 -21 11 -50 59 -50 85 0 12 12 15 59 15 39 0 61 -4 64 -12 3 -10 9 -10 28 0
17 9 107 13 324 15 l300 2 -302 3 c-187 1 -303 6 -303 12 0 5 14 25 31 45 32
36 56 44 76 24 6 -6 90 -15 199 -21 227 -12 306 1 375 60 48 42 90 123 83 160
-5 25 -1 28 44 45 31 10 63 31 82 54 32 36 32 37 28 121 -4 79 -3 85 17 94
l22 10 -24 91 c-28 104 -77 243 -93 263 -7 7 -18 37 -26 66 -13 49 -13 54 3
66 112 80 155 117 200 172 66 81 132 206 131 246 -1 16 4 39 11 51 18 35 13
48 -24 66 -35 17 -48 47 -20 47 8 0 15 6 15 13 0 9 2 9 8 -1 11 -17 44 -4 40
15 -3 13 -66 42 -90 43 -5 0 -8 -13 -8 -28 0 -16 -9 -37 -20 -47 -16 -15 -20
-29 -18 -64 3 -43 0 -49 -46 -95 -69 -68 -242 -146 -261 -117 -9 16 -41 13
-55 -4 -9 -11 -32 -15 -81 -15 -74 0 -94 11 -105 58 -4 15 -15 41 -24 57 -10
17 -22 63 -27 103 -9 71 -9 74 15 93 14 10 29 19 33 19 5 0 9 4 9 9 0 4 -40
14 -89 21 l-89 13 -69 -38 c-90 -49 -95 -55 -47 -55 50 0 67 -11 62 -40 -2
-18 -14 -26 -50 -37 -60 -17 -88 -52 -88 -108 0 -57 -30 -95 -74 -95 -24 0
-41 10 -73 43 -44 45 -112 145 -133 196 -7 17 -20 31 -29 31 -26 0 -18 54 13
91 15 17 25 33 23 35 -2 2 -18 -2 -36 -9 -28 -10 -34 -10 -45 6 -15 19 -37 20
-78 4z m531 -1421 c10 -9 62 -20 130 -28 72 -8 116 -18 119 -26 3 -9 -36 -12
-167 -12 -105 0 -171 4 -171 10 0 13 52 70 64 70 5 0 17 -6 25 -14z m186 -118
c10 -10 -55 -26 -185 -45 -63 -9 -117 -20 -120 -24 -9 -12 -53 -21 -59 -12 -3
6 -26 13 -50 16 -37 5 -44 3 -48 -14 -5 -16 -15 -19 -64 -19 -64 0 -69 6 -47
56 22 47 49 51 318 50 137 -1 251 -4 255 -8z m-477 -117 c8 -1 12 -19 12 -56
l0 -55 -65 0 -64 0 -7 36 c-3 19 -2 45 3 57 9 19 18 22 59 21 27 -1 55 -2 62
-3z"/>
<path d="M4958 4708 c-98 -133 -118 -166 -118 -197 0 -16 7 -37 16 -46 13 -13
182 -150 232 -188 9 -7 30 7 75 49 34 32 80 73 102 90 l39 30 -23 115 c-13 63
-27 121 -32 130 -5 9 -53 30 -109 48 -56 18 -108 35 -115 37 -9 4 -34 -22 -67
-68z"/>
<path d="M9988 4734 c-60 -39 -75 -85 -70 -226 l2 -48 815 0 815 0 6 26 c10
40 -2 147 -20 185 -9 19 -34 46 -55 62 l-39 27 -709 -1 -708 0 -37 -25z m136
-86 c20 -29 20 -52 0 -72 -21 -21 -46 -20 -73 3 -16 14 -21 26 -16 40 16 52
63 66 89 29z m142 -3 c36 -55 -16 -107 -71 -71 -30 20 -32 49 -5 76 27 27 56
25 76 -5z m129 13 c33 -15 36 -71 4 -88 -46 -25 -91 17 -72 67 12 33 29 39 68
21z"/>
<path d="M1050 4653 l-95 -25 -65 -76 c-54 -63 -60 -74 -40 -69 86 19 86 19
113 -12 14 -17 35 -31 46 -31 10 0 21 -5 23 -12 3 -8 18 -4 48 13 56 31 72 68
47 111 -22 39 -22 46 8 91 14 20 22 37 18 36 -4 0 -51 -12 -103 -26z"/>
<path d="M3720 4559 c0 -6 -14 -112 -31 -237 -17 -125 -31 -258 -30 -297 1
-38 -3 -113 -9 -165 -5 -52 -10 -131 -12 -175 l-3 -80 175 4 c96 2 176 4 177
5 1 1 5 20 9 43 l6 41 -58 6 c-33 3 -94 8 -136 12 l-78 6 0 59 c0 32 3 60 8
62 4 2 62 -1 130 -6 67 -6 125 -7 128 -4 3 2 8 29 11 59 5 47 2 58 -19 83 -22
26 -32 29 -105 33 l-80 4 -7 182 c-3 99 -9 225 -13 279 l-6 97 -29 0 c-15 0
-28 -5 -28 -11z"/>
<path d="M12665 4522 c-48 -30 -58 -47 -50 -90 7 -44 -16 -82 -66 -107 -15 -9
-33 -25 -40 -36 -10 -20 -9 -21 33 -17 39 3 43 1 46 -21 2 -13 -2 -43 -8 -67
-10 -35 -10 -47 0 -59 9 -11 9 -22 1 -47 -10 -28 -9 -35 6 -46 21 -15 60 -8
86 15 9 9 34 18 54 20 40 4 69 24 78 54 4 10 19 32 35 47 15 16 34 47 41 70
10 35 10 45 -4 65 -12 18 -14 39 -10 78 4 46 1 59 -19 88 -45 67 -123 89 -183
53z m-13 -347 c-12 -25 -52 -53 -52 -36 0 5 5 13 10 16 6 3 10 16 10 29 0 12
5 27 12 34 19 19 33 -14 20 -43z"/>
<path d="M4707 4317 c-39 -17 -49 -27 -58 -57 -6 -19 -9 -49 -7 -65 l3 -30 28
48 c16 26 34 47 41 47 7 0 23 -11 36 -25 15 -16 35 -25 54 -26 17 0 48 -1 70
-2 26 -1 42 3 49 14 18 28 1 49 -39 49 -30 0 -44 7 -70 35 -36 40 -42 41 -107
12z"/>
<path d="M5646 4284 c-9 -24 -9 -24 30 -24 29 0 35 3 30 16 -3 9 -6 18 -6 20
0 12 -49 2 -54 -12z"/>
<path d="M4142 4068 c5 -238 10 -245 171 -264 31 -4 57 -10 57 -15 0 -4 -15
-72 -34 -151 -28 -121 -67 -319 -81 -420 -4 -23 5 -35 60 -80 35 -29 62 -54
60 -56 -2 -2 -29 5 -60 17 -31 12 -57 21 -59 21 -6 0 -56 -126 -58 -148 -3
-21 11 -27 206 -92 115 -38 214 -74 219 -79 5 -5 40 -99 77 -208 l68 -198 73
1 c83 2 159 13 159 24 0 4 -30 85 -66 181 -64 169 -65 174 -49 201 15 26 15
35 0 117 -15 77 -15 107 -5 218 6 70 10 172 9 226 l-3 98 80 33 c92 38 138 61
177 88 24 17 27 25 22 50 -6 25 -42 116 -50 126 -1 1 -38 -16 -81 -38 -43 -22
-88 -39 -98 -38 -14 2 -23 19 -36 63 -31 112 -79 184 -149 223 -45 25 -54 21
-18 -9 l22 -19 -24 -20 c-13 -11 -34 -20 -48 -20 -34 0 -93 60 -93 94 l0 26
-140 0 c-163 0 -150 -9 -176 128 l-18 92 -59 0 -59 0 4 -172z m627 -1157 c20
-15 22 -21 12 -39 -10 -19 -15 -20 -36 -10 -25 11 -30 24 -19 52 8 20 13 20
43 -3z"/>
<path d="M3516 4122 c-17 -34 -13 -42 22 -42 21 0 23 3 17 28 -10 42 -22 47
-39 14z"/>
<path d="M11026 4124 c-18 -48 9 -99 39 -74 22 18 19 51 -5 57 -19 5 -20 6 -3
19 17 13 17 13 -3 14 -12 0 -25 -7 -28 -16z m34 -49 c0 -8 -4 -15 -10 -15 -5
0 -10 7 -10 15 0 8 5 15 10 15 6 0 10 -7 10 -15z"/>
<path d="M11144 4133 c4 -5 12 -9 17 -9 5 -1 12 -2 16 -3 4 0 -2 -8 -13 -16
-18 -13 -18 -14 -1 -15 12 0 17 -6 15 -17 -2 -10 -10 -17 -16 -15 -7 1 -12 -2
-12 -8 0 -14 26 -12 37 3 6 6 11 29 11 50 1 35 0 37 -30 37 -17 0 -28 -3 -24
-7z"/>
<path d="M11265 4098 c1 -24 3 -47 4 -51 0 -5 11 -7 24 -5 19 3 22 10 24 51 2
46 2 47 -26 47 -28 0 -29 -2 -26 -42z m35 22 c0 -5 -5 -10 -11 -10 -5 0 -7 5
-4 10 3 6 8 10 11 10 2 0 4 -4 4 -10z m-4 -57 c-10 -10 -19 5 -10 18 6 11 8
11 12 0 2 -7 1 -15 -2 -18z"/>
<path d="M11385 4130 c4 -6 10 -8 15 -5 21 13 20 -19 -1 -41 -25 -27 -21 -36
17 -40 21 -2 24 0 13 12 -9 11 -9 18 -1 26 7 7 12 22 12 35 0 19 -5 23 -31 23
-18 0 -28 -4 -24 -10z"/>
<path d="M11496 4125 c-6 -16 47 -78 58 -68 3 4 6 24 6 45 0 35 -2 38 -29 38
-16 0 -31 -6 -35 -15z m39 -33 c-3 -4 -10 0 -15 8 -6 9 -5 17 3 22 13 8 24
-19 12 -30z"/>
<path d="M11621 4116 c-11 -20 -10 -28 4 -50 11 -16 24 -25 32 -22 8 4 17 6
19 6 2 0 4 20 4 45 0 40 -2 45 -23 45 -15 0 -29 -9 -36 -24z m37 -48 c-3 -21
-4 -20 -17 5 -12 23 -12 29 0 43 13 16 14 16 17 -4 2 -12 2 -32 0 -44z"/>
<path d="M706 4123 c-3 -4 -25 -7 -49 -7 -36 -1 -42 -4 -42 -22 -1 -11 -9 -33
-18 -48 -25 -37 -36 -71 -29 -82 4 -6 43 -23 87 -38 139 -49 181 -73 240 -139
30 -34 71 -92 91 -130 42 -80 86 -244 73 -269 -5 -9 -9 -26 -9 -38 0 -12 -11
-38 -25 -58 -14 -20 -25 -41 -25 -47 0 -14 -43 -99 -55 -107 -5 -4 -29 -8 -52
-8 l-41 0 13 -50 13 -50 -30 -16 c-33 -17 -118 -92 -118 -104 0 -5 21 -2 47 6
25 8 49 14 52 14 3 0 6 -55 6 -122 0 -107 3 -130 23 -172 34 -74 83 -128 146
-160 65 -33 107 -30 155 10 26 21 38 25 88 22 57 -3 58 -4 60 -33 1 -33 -13
-204 -23 -272 l-6 -43 -124 0 c-173 0 -161 -19 14 -22 l137 -3 3 -37 c4 -44 4
-44 138 -53 85 -6 184 7 184 24 0 4 -33 18 -72 31 l-73 24 45 7 c25 4 107 8
183 8 84 1 137 5 137 11 0 6 -53 10 -139 10 l-139 0 -7 40 c-4 21 -4 44 0 50
4 6 60 11 138 12 l132 2 -130 6 -130 5 2 55 c1 30 7 83 14 117 l11 62 121 3
121 3 8 38 c4 21 15 52 24 68 14 28 20 31 48 26 24 -4 37 0 48 13 15 16 21 17
94 4 96 -17 353 -51 452 -60 l72 -7 0 77 0 76 -395 0 -395 0 0 40 0 40 189 0
c116 0 192 4 196 10 4 7 -61 10 -188 10 l-193 0 -13 78 c-8 42 -16 89 -18 105
l-5 27 93 0 94 0 -27 23 c-15 12 -34 39 -42 61 -16 39 -21 75 -10 63 4 -3 15
-2 24 3 15 8 19 5 25 -18 6 -23 8 -25 19 -12 6 8 22 21 35 28 20 12 26 11 44
-5 l21 -18 -17 27 c-9 15 -17 34 -17 42 0 8 -6 16 -12 19 -10 4 -10 7 0 18 17
18 15 34 -3 19 -17 -14 -20 -46 -4 -55 7 -5 5 -13 -6 -25 -26 -29 -65 -7 -65
35 0 37 34 87 54 79 9 -3 17 9 25 40 6 26 25 60 45 80 l33 36 -28 0 c-31 0
-94 -49 -104 -81 -7 -22 -15 -24 -39 -6 -17 13 -17 16 14 50 l32 37 -96 0 -96
0 0 81 c0 44 -5 89 -10 99 -6 10 -54 44 -108 74 l-97 55 -140 -9 c-94 -5 -147
-5 -160 2 -21 11 -292 185 -430 275 -80 53 -95 59 -109 46z m1183 -842 c8 -15
6 -20 -15 -30 -33 -15 -34 -15 -34 12 0 40 31 52 49 18z m-336 -305 c3 -8 -2
-21 -12 -30 -17 -16 -19 -15 -34 8 -15 23 -15 25 1 29 31 8 40 7 45 -7z"/>
<path d="M4771 4114 c0 -11 3 -14 6 -6 3 7 2 16 -1 19 -3 4 -6 -2 -5 -13z"/>
<path d="M10518 4063 c7 -3 16 -2 19 1 4 3 -2 6 -13 5 -11 0 -14 -3 -6 -6z"/>
<path d="M12520 3928 c-25 -5 -56 -14 -70 -20 -14 -6 -34 -14 -45 -18 -61 -21
-208 -98 -260 -135 -74 -53 -149 -130 -141 -143 3 -6 20 -13 36 -17 47 -10 88
-51 95 -93 20 -123 42 -172 104 -230 l46 -44 4 -116 c3 -113 -11 -296 -29
-357 -5 -16 -12 -50 -15 -74 -7 -42 -6 -43 16 -36 13 3 33 10 44 15 11 6 117
48 235 95 333 133 467 195 476 219 5 12 -50 127 -76 161 -5 6 -29 50 -54 100
l-45 90 26 27 c15 15 45 35 68 44 40 15 44 14 115 -10 40 -14 87 -26 104 -26
39 0 105 20 137 41 l24 17 -28 58 c-63 128 -132 230 -208 306 -108 108 -153
127 -341 148 -112 12 -156 11 -218 -2z"/>
<path d="M10137 3889 c-15 -17 -17 -26 -7 -52 13 -37 74 -97 127 -123 46 -23
193 -26 232 -5 l24 13 -24 19 c-13 10 -34 19 -45 19 -12 0 -24 7 -28 15 -3 9
-19 15 -41 15 -19 0 -34 3 -34 8 4 21 -5 30 -40 40 -21 7 -47 12 -58 12 -12 0
-23 8 -26 20 -3 11 -12 20 -21 20 -9 0 -16 5 -16 10 0 17 -25 11 -43 -11z"/>
<path d="M1309 3869 c16 -6 28 -6 35 1 7 7 -1 10 -24 9 -33 0 -34 -1 -11 -10z"/>
<path d="M5346 3735 c4 -8 8 -15 10 -15 2 0 4 7 4 15 0 8 -4 15 -10 15 -5 0
-7 -7 -4 -15z"/>
<path d="M2285 3669 c-9 -28 -3 -31 24 -12 18 12 20 17 10 24 -21 13 -27 11
-34 -12z"/>
<path d="M2020 3289 c0 -16 37 -66 43 -59 2 3 -7 20 -20 39 -12 19 -23 28 -23
20z"/>
<path d="M4044 3168 c-17 -26 -92 -233 -88 -240 11 -17 39 -6 80 32 24 22 54
40 66 40 26 1 65 26 48 32 -7 2 -6 15 5 40 8 21 15 42 15 48 0 10 -91 60 -109
60 -5 0 -13 -5 -17 -12z"/>
<path d="M716 3134 c-9 -24 -9 -24 30 -24 29 0 35 3 30 16 -3 9 -6 18 -6 20 0
12 -49 2 -54 -12z"/>
<path d="M1985 3118 c-9 -37 12 -58 58 -58 l29 0 -31 35 c-17 20 -31 40 -31
45 0 24 -19 7 -25 -22z"/>
<path d="M5846 3073 c-9 -9 -8 -43 2 -43 4 0 15 7 25 15 18 13 18 14 -1 24
-11 6 -22 7 -26 4z"/>
<path d="M2020 2970 c0 -6 35 -10 85 -10 50 0 85 4 85 10 0 6 -35 10 -85 10
-50 0 -85 -4 -85 -10z"/>
<path d="M2650 2669 c0 -71 2 -80 18 -77 14 3 17 16 20 81 3 72 1 77 -18 77
-18 0 -20 -6 -20 -81z"/>
<path d="M2742 2678 c3 -67 5 -73 26 -76 21 -3 22 0 22 72 0 75 0 76 -25 76
-26 0 -26 -1 -23 -72z"/>
<path d="M2848 2670 c3 -71 6 -80 23 -80 17 0 19 8 19 80 0 76 -1 80 -22 80
-22 0 -23 -3 -20 -80z"/>
<path d="M4921 2364 c-1 -17 -11 -24 -47 -33 -34 -9 -45 -16 -42 -29 4 -18 6
-18 111 -7 l58 7 -35 26 c-19 15 -37 34 -39 42 -3 9 -5 7 -6 -6z"/>
<path d="M1683 935 c-55 -39 -51 -150 7 -180 37 -19 70 -19 98 1 20 14 22 14
22 0 0 -9 5 -16 10 -16 6 0 10 25 10 55 l0 55 -35 0 c-19 0 -35 -4 -35 -10 0
-5 11 -10 25 -10 31 0 33 -22 5 -50 -20 -20 -54 -26 -85 -14 -26 10 -48 62
-41 100 13 66 80 90 129 47 9 -9 20 -13 25 -9 4 4 -4 16 -17 27 -28 23 -88 25
-118 4z"/>
<path d="M2060 921 c0 -16 -6 -32 -12 -34 -10 -4 -10 -6 0 -6 8 -1 12 -20 12
-59 0 -60 11 -82 42 -82 24 0 23 16 -2 23 -17 4 -20 14 -20 60 0 50 2 56 23
60 l22 4 -22 2 c-19 1 -23 7 -23 31 0 17 -4 30 -10 30 -5 0 -10 -13 -10 -29z"/>
<path d="M3367 943 c-4 -3 -7 -17 -7 -29 0 -13 -7 -24 -17 -27 -17 -4 -17 -5
0 -6 14 -1 17 -11 17 -71 0 -40 4 -70 10 -70 6 0 10 30 10 69 0 58 3 70 18 74
16 4 16 5 0 6 -10 0 -18 8 -18 17 0 9 8 23 18 30 16 12 16 13 -4 14 -11 0 -24
-3 -27 -7z"/>
<path d="M3770 940 c0 -5 7 -10 15 -10 8 0 15 5 15 10 0 6 -7 10 -15 10 -8 0
-15 -4 -15 -10z"/>
<path d="M4109 908 c-1 -24 -1 -61 0 -84 4 -67 -57 -89 -89 -31 -13 24 -13 30
1 55 12 21 22 27 47 26 18 -1 29 2 26 7 -9 15 -61 10 -78 -7 -23 -23 -21 -89
4 -114 22 -22 42 -25 71 -10 13 7 19 7 19 0 0 -5 5 -10 10 -10 6 0 10 42 10
105 0 63 -4 105 -10 105 -5 0 -11 -19 -11 -42z"/>
<path d="M4264 845 c0 -60 1 -91 3 -67 2 23 7 42 10 42 3 0 21 -18 40 -40 19
-22 42 -40 51 -40 11 0 3 14 -26 43 l-42 43 30 29 c42 40 29 44 -19 6 l-40
-32 -4 63 c-2 35 -3 14 -3 -47z"/>
<path d="M4980 940 c0 -5 5 -10 10 -10 6 0 10 5 10 10 0 6 -4 10 -10 10 -5 0
-10 -4 -10 -10z"/>
<path d="M5470 921 c0 -16 -6 -32 -12 -34 -10 -4 -10 -6 0 -6 8 -1 12 -20 12
-59 0 -60 11 -82 42 -82 24 0 23 16 -2 23 -17 4 -20 14 -20 60 0 50 2 56 23
60 l22 4 -22 2 c-19 1 -23 7 -23 31 0 17 -4 30 -10 30 -5 0 -10 -13 -10 -29z"/>
<path d="M5560 845 c0 -113 16 -145 22 -42 4 81 -2 147 -13 147 -5 0 -9 -47
-9 -105z"/>
<path d="M5900 921 c0 -20 -6 -31 -17 -34 -17 -4 -17 -5 0 -6 14 -1 17 -11 17
-65 0 -49 4 -65 16 -70 23 -9 34 -7 34 4 0 6 -7 10 -15 10 -24 0 -21 117 3
123 16 4 16 5 0 6 -13 1 -18 10 -18 31 0 17 -4 30 -10 30 -5 0 -10 -13 -10
-29z"/>
<path d="M6765 925 c-23 -22 -30 -49 -26 -100 4 -50 43 -85 96 -85 27 0 84 44
72 56 -4 4 -16 -2 -27 -14 -23 -24 -67 -29 -93 -9 -42 30 -37 124 8 153 26 17
58 12 88 -14 25 -22 32 -7 8 17 -30 30 -94 29 -126 -4z"/>
<path d="M7240 921 c0 -20 -6 -31 -17 -34 -17 -4 -17 -5 0 -6 14 -1 17 -11 17
-65 0 -49 4 -65 16 -70 23 -9 34 -7 34 4 0 6 -7 10 -15 10 -24 0 -21 117 3
123 16 4 16 5 0 6 -13 1 -18 10 -18 31 0 17 -4 30 -10 30 -5 0 -10 -13 -10
-29z"/>
<path d="M7320 940 c0 -5 7 -10 15 -10 8 0 15 5 15 10 0 6 -7 10 -15 10 -8 0
-15 -4 -15 -10z"/>
<path d="M7407 923 c-6 -16 -16 -31 -22 -35 -6 -5 -5 -8 3 -8 8 0 12 -21 12
-70 0 -40 4 -70 10 -70 6 0 10 30 10 69 0 64 2 70 23 74 l22 4 -22 2 c-29 1
-29 25 -1 45 l22 16 -22 0 c-15 0 -26 -9 -35 -27z"/>
<path d="M7490 940 c0 -5 5 -10 10 -10 6 0 10 5 10 10 0 6 -4 10 -10 10 -5 0
-10 -4 -10 -10z"/>
<path d="M7902 928 c-1 -15 -9 -31 -18 -36 -15 -8 -15 -10 0 -15 12 -5 16 -20
16 -66 0 -57 8 -71 41 -71 17 0 9 18 -11 23 -17 4 -20 14 -20 56 0 44 3 53 23
61 l22 9 -22 0 c-17 1 -23 8 -26 34 -3 28 -4 29 -5 5z"/>
<path d="M8910 845 c0 -113 16 -145 22 -42 4 81 -2 147 -13 147 -5 0 -9 -47
-9 -105z"/>
<path d="M9510 908 c0 -33 -3 -39 -12 -30 -21 21 -75 15 -92 -10 -45 -64 16
-156 78 -118 14 9 21 10 24 1 2 -6 8 -11 13 -11 5 0 9 47 9 105 0 63 -4 105
-10 105 -5 0 -10 -19 -10 -42z m-11 -60 c22 -38 5 -82 -32 -86 -37 -4 -57 13
-57 51 0 64 60 87 89 35z"/>
<path d="M9570 857 c0 -92 8 -117 37 -117 7 0 13 5 13 10 0 6 -7 10 -15 10
-12 0 -15 17 -15 95 0 57 -4 95 -10 95 -6 0 -10 -38 -10 -93z"/>
<path d="M9940 908 c0 -33 -3 -39 -12 -30 -7 7 -27 12 -45 12 -26 0 -36 -6
-49 -31 -36 -70 22 -143 87 -109 13 7 19 7 19 0 0 -5 5 -10 10 -10 6 0 10 42
10 105 0 63 -4 105 -10 105 -5 0 -10 -19 -10 -42z m-18 -45 c37 -34 16 -103
-32 -103 -47 0 -68 64 -33 102 20 22 41 23 65 1z"/>
<path d="M10080 845 c0 -93 9 -130 23 -92 4 10 7 10 18 0 36 -34 99 5 99 62 0
46 -25 75 -64 75 -17 0 -37 -5 -44 -12 -9 -9 -12 -3 -12 30 0 23 -4 42 -10 42
-6 0 -10 -42 -10 -105z m102 18 c20 -18 24 -73 6 -91 -7 -7 -24 -12 -40 -12
-45 0 -63 54 -32 98 18 26 41 28 66 5z"/>
<path d="M10500 844 l0 -106 54 4 c64 5 86 20 86 59 0 37 -33 59 -87 59 -43 0
-43 0 -43 36 l0 35 48 -3 c46 -3 47 -4 47 -36 0 -38 19 -37 23 2 5 42 -13 56
-74 56 l-54 0 0 -106z m120 -23 c21 -40 -13 -67 -76 -59 -30 3 -43 31 -30 64
9 23 93 19 106 -5z"/>
<path d="M10692 852 c-2 -85 1 -104 13 -109 23 -8 31 5 12 20 -13 9 -17 33
-20 102 l-3 90 -2 -103z"/>
<path d="M11110 845 c0 -63 4 -105 10 -105 6 0 10 19 10 42 l0 42 45 -44 c24
-24 47 -41 50 -39 2 3 -11 21 -30 39 -19 19 -35 39 -35 46 0 7 15 24 33 38 18
14 26 26 17 26 -8 0 -29 -14 -47 -32 l-33 -32 0 62 c0 35 -4 62 -10 62 -6 0
-10 -42 -10 -105z"/>
<path d="M11443 845 c0 -92 1 -100 7 -53 8 66 24 90 54 86 19 -3 21 -11 24
-70 2 -38 7 -68 12 -68 14 0 12 124 -2 138 -16 16 -65 15 -75 0 -5 -8 -10 4
-14 32 -4 28 -6 4 -6 -65z"/>
<path d="M11750 940 c0 -5 7 -10 15 -10 8 0 15 5 15 10 0 6 -7 10 -15 10 -8 0
-15 -4 -15 -10z"/>
<path d="M1886 868 c-35 -50 -7 -128 47 -128 26 0 67 26 67 42 0 6 -8 4 -18
-5 -35 -32 -92 -16 -92 25 0 15 9 18 60 18 66 0 77 13 40 50 -28 28 -84 27
-104 -2z m88 -4 c26 -26 18 -34 -34 -34 -37 0 -50 4 -50 15 0 32 58 45 84 19z"/>
<path d="M2230 784 c0 -67 4 -103 10 -99 6 3 10 22 10 41 0 31 2 34 19 24 29
-15 49 -12 71 10 25 25 27 91 4 114 -17 17 -69 22 -78 7 -3 -5 8 -8 26 -7 25
1 35 -5 47 -26 14 -25 14 -31 1 -55 -32 -58 -93 -36 -89 31 2 55 1 66 -11 66
-6 0 -10 -42 -10 -106z"/>
<path d="M2416 868 c-23 -33 -20 -75 9 -103 30 -30 68 -32 96 -4 25 25 17 39
-9 16 -25 -23 -69 -22 -82 2 -18 36 -12 41 50 41 52 0 60 3 60 18 0 50 -95 73
-124 30z m85 2 c38 -21 23 -40 -31 -40 -52 0 -60 8 -34 34 18 19 38 20 65 6z"/>
<path d="M2595 870 c-10 -11 -13 -20 -8 -20 6 0 16 7 23 15 15 18 42 19 58 3
22 -22 13 -35 -27 -42 -42 -6 -64 -26 -59 -52 5 -29 34 -40 68 -27 16 6 30 7
30 2 0 -5 5 -9 10 -9 13 0 13 106 0 131 -14 26 -71 26 -95 -1z m85 -68 c0 -26
-20 -42 -51 -42 -45 0 -45 36 1 53 31 11 50 7 50 -11z"/>
<path d="M2756 868 c-36 -51 -7 -128 48 -128 27 0 75 34 63 46 -4 4 -13 0 -20
-10 -19 -25 -68 -18 -83 13 -28 56 32 115 76 76 11 -10 23 -15 28 -11 12 13
-30 36 -64 36 -23 0 -38 -7 -48 -22z"/>
<path d="M2926 868 c-35 -50 -7 -128 47 -128 26 0 67 26 67 42 0 6 -8 4 -18
-5 -35 -32 -92 -16 -92 25 0 15 9 18 60 18 66 0 77 13 40 50 -28 28 -84 27
-104 -2z m88 -4 c26 -26 18 -34 -34 -34 -37 0 -50 4 -50 15 0 32 58 45 84 19z"/>
<path d="M3186 874 c-38 -38 -28 -104 18 -125 35 -16 73 -3 91 31 20 38 19 52
-6 84 -24 30 -78 36 -103 10z m84 -14 c37 -37 14 -100 -36 -100 -49 0 -72 64
-37 102 21 24 48 23 73 -2z"/>
<path d="M3520 815 c0 -91 17 -100 22 -12 4 67 1 87 -13 87 -5 0 -9 -34 -9
-75z"/>
<path d="M3555 880 c-4 -7 2 -9 18 -5 33 9 47 -17 47 -84 0 -28 5 -51 10 -51
6 0 10 26 10 59 0 66 18 93 48 74 12 -7 18 -27 20 -72 2 -33 7 -61 12 -61 14
0 12 124 -2 138 -15 15 -60 16 -75 1 -8 -8 -13 -8 -17 0 -9 14 -63 14 -71 1z"/>
<path d="M3783 815 c0 -44 2 -61 4 -37 2 23 2 59 0 80 -2 20 -4 1 -4 -43z"/>
<path d="M3840 815 c0 -43 4 -75 10 -75 6 0 10 26 10 58 0 60 11 82 41 82 25
0 33 -17 40 -85 6 -60 6 -60 5 15 -1 74 -1 75 -29 78 -16 2 -35 -2 -43 -9 -10
-8 -14 -8 -14 0 0 6 -4 11 -10 11 -6 0 -10 -32 -10 -75z"/>
<path d="M4410 815 c0 -43 4 -75 10 -75 6 0 10 23 10 51 0 58 13 89 38 89 31
0 42 -22 42 -82 0 -32 4 -58 10 -58 13 0 13 91 0 124 -7 20 -17 26 -38 26 -15
0 -33 -5 -40 -12 -9 -9 -12 -9 -12 0 0 7 -4 12 -10 12 -6 0 -10 -32 -10 -75z"/>
<path d="M4586 868 c-37 -53 -6 -128 52 -128 61 0 96 86 52 130 -28 28 -84 27
-104 -2z m86 -5 c22 -19 24 -76 4 -92 -43 -36 -105 15 -85 68 17 43 49 53 81
24z"/>
<path d="M4743 877 c3 -7 13 -41 22 -75 10 -34 21 -62 26 -62 4 0 15 24 24 53
10 28 21 56 25 60 3 4 15 -20 25 -53 10 -33 23 -59 28 -57 9 3 47 110 47 135
0 29 -19 -1 -30 -49 -7 -27 -15 -47 -19 -44 -3 4 -13 27 -22 53 -8 25 -20 47
-26 49 -6 2 -20 -22 -31 -54 -21 -60 -23 -60 -42 15 -6 23 -16 42 -21 42 -6 0
-9 -6 -6 -13z"/>
<path d="M4980 815 c0 -43 4 -75 10 -75 6 0 10 32 10 75 0 43 -4 75 -10 75 -6
0 -10 -32 -10 -75z"/>
<path d="M5040 815 c0 -91 17 -100 22 -12 4 67 1 87 -13 87 -5 0 -9 -34 -9
-75z"/>
<path d="M5074 879 c-4 -8 1 -9 15 -4 36 11 51 -11 51 -76 0 -33 4 -59 10 -59
13 0 13 106 0 131 -12 21 -64 27 -76 8z"/>
<path d="M5216 868 c-22 -31 -20 -70 5 -102 21 -26 62 -35 74 -16 3 6 10 10
16 10 13 0 11 -34 -3 -48 -15 -15 -61 -15 -76 0 -6 6 -15 9 -19 5 -11 -12 12
-27 49 -33 28 -5 40 -2 57 15 18 18 21 33 21 106 0 50 -4 85 -10 85 -5 0 -10
-5 -10 -12 0 -9 -3 -9 -12 0 -21 21 -75 15 -92 -10z m93 -20 c22 -39 5 -82
-34 -86 -50 -6 -75 59 -38 100 23 25 54 19 72 -14z"/>
<path d="M5594 879 c-4 -8 1 -9 15 -4 36 11 51 -11 51 -76 0 -33 4 -59 10 -59
13 0 13 106 0 131 -12 21 -64 27 -76 8z"/>
<path d="M5735 870 c-10 -11 -13 -20 -8 -20 6 0 16 7 23 15 15 18 42 19 58 3
22 -22 13 -35 -27 -42 -42 -6 -64 -26 -59 -52 5 -29 34 -40 68 -27 16 6 30 7
30 2 0 -5 5 -9 10 -9 13 0 13 106 0 131 -14 26 -71 26 -95 -1z m85 -68 c0 -26
-20 -42 -51 -42 -45 0 -45 36 1 53 31 11 50 7 50 -11z"/>
<path d="M6080 819 c17 -39 30 -76 30 -80 0 -5 -9 -18 -21 -30 -24 -24 -20
-35 8 -21 10 6 32 48 51 99 34 94 37 103 24 103 -5 0 -16 -25 -26 -55 -9 -30
-20 -55 -24 -55 -4 0 -16 23 -27 52 -11 28 -26 53 -32 55 -7 3 0 -26 17 -68z"/>
<path d="M6236 874 c-38 -38 -28 -104 18 -125 35 -16 73 -3 91 31 20 38 19 52
-6 84 -24 30 -78 36 -103 10z m84 -14 c37 -37 14 -100 -36 -100 -49 0 -72 64
-37 102 21 24 48 23 73 -2z"/>
<path d="M6401 829 c0 -39 4 -70 11 -77 16 -16 51 -15 66 0 10 10 15 10 22 -2
7 -10 9 11 9 65 -2 80 -2 80 -9 24 -9 -69 -15 -79 -45 -79 -30 0 -36 10 -45
79 l-7 56 -2 -66z"/>
<path d="M6560 815 c0 -91 17 -100 22 -12 4 67 1 87 -13 87 -5 0 -9 -34 -9
-75z"/>
<path d="M6595 880 c-8 -13 5 -13 25 0 13 8 13 10 -2 10 -9 0 -20 -4 -23 -10z"/>
<path d="M6974 882 c-16 -11 -34 -48 -34 -72 0 -29 44 -70 75 -70 14 0 34 9
46 21 25 25 17 39 -9 16 -25 -23 -69 -22 -82 2 -18 36 -12 41 50 41 52 0 60 3
60 18 0 39 -70 68 -106 44z m74 -14 c26 -26 13 -38 -38 -38 -54 0 -59 4 -33
32 18 21 53 24 71 6z"/>
<path d="M7131 810 l2 -75 6 58 c5 46 12 62 31 77 l25 19 -32 -2 -33 -2 1 -75z"/>
<path d="M7330 815 c0 -43 4 -75 10 -75 6 0 10 32 10 75 0 43 -4 75 -10 75 -6
0 -10 -32 -10 -75z"/>
<path d="M7490 815 c0 -43 4 -75 10 -75 6 0 10 32 10 75 0 43 -4 75 -10 75 -6
0 -10 -32 -10 -75z"/>
<path d="M7566 868 c-36 -51 -7 -128 48 -128 27 0 75 34 63 46 -4 4 -13 0 -20
-10 -19 -25 -68 -18 -83 13 -28 56 32 115 76 76 11 -10 23 -15 28 -11 12 13
-30 36 -64 36 -23 0 -38 -7 -48 -22z"/>
<path d="M7735 870 c-10 -11 -13 -20 -8 -20 6 0 16 7 23 15 15 18 42 19 58 3
22 -22 13 -35 -27 -42 -42 -6 -64 -26 -59 -52 5 -29 34 -40 68 -27 16 6 30 7
30 2 0 -5 5 -9 10 -9 13 0 13 106 0 131 -14 26 -71 26 -95 -1z m85 -68 c0 -26
-20 -42 -51 -42 -45 0 -45 36 1 53 31 11 50 7 50 -11z"/>
<path d="M7996 868 c-23 -33 -20 -75 9 -103 30 -30 68 -32 96 -4 25 25 17 39
-9 16 -25 -23 -69 -22 -82 2 -18 36 -12 41 50 41 52 0 60 3 60 18 0 50 -95 73
-124 30z m85 2 c38 -21 23 -40 -31 -40 -52 0 -60 8 -34 34 18 19 38 20 65 6z"/>
<path d="M8172 878 c-24 -24 -13 -47 28 -59 44 -13 65 -32 55 -49 -10 -16 -56
-12 -77 7 -26 23 -34 9 -9 -16 28 -28 75 -27 95 1 21 29 5 54 -41 65 -28 6
-38 14 -38 28 0 26 37 32 59 9 20 -20 34 -11 16 11 -15 18 -71 20 -88 3z"/>
<path d="M8410 875 c-7 -9 -10 -18 -6 -22 3 -4 12 2 20 12 17 24 66 13 66 -14
0 -14 -10 -20 -39 -25 -42 -6 -64 -26 -59 -52 5 -29 34 -40 68 -27 16 6 30 7
30 2 0 -5 5 -9 10 -9 14 0 13 123 -2 138 -17 17 -73 15 -88 -3z m80 -73 c0
-26 -20 -42 -53 -42 -24 0 -28 4 -25 22 2 14 13 25 28 29 41 11 50 10 50 -9z"/>
<path d="M8561 810 l2 -75 6 58 c5 46 12 62 31 77 l25 19 -32 -2 -33 -2 1 -75z"/>
<path d="M8684 882 c-16 -11 -34 -48 -34 -72 0 -29 44 -70 75 -70 14 0 34 9
46 21 25 25 17 39 -9 16 -25 -23 -69 -22 -82 2 -18 36 -12 41 50 41 52 0 60 3
60 18 0 39 -70 68 -106 44z m74 -14 c26 -26 13 -38 -38 -38 -54 0 -59 4 -33
32 18 21 53 24 71 6z"/>
<path d="M8944 879 c-4 -8 1 -9 15 -4 36 11 51 -11 51 -76 0 -33 4 -59 10 -59
13 0 13 106 0 131 -12 21 -64 27 -76 8z"/>
<path d="M9085 870 c-10 -11 -13 -20 -8 -20 6 0 16 7 23 15 15 18 42 19 58 3
22 -22 13 -35 -27 -42 -42 -6 -64 -26 -59 -52 5 -29 34 -40 68 -27 16 6 30 7
30 2 0 -5 5 -9 10 -9 13 0 13 106 0 131 -14 26 -71 26 -95 -1z m85 -68 c0 -26
-20 -42 -51 -42 -45 0 -45 36 1 53 31 11 50 7 50 -11z"/>
<path d="M9242 815 c1 -77 1 -78 7 -24 7 63 25 91 55 87 19 -3 21 -11 24 -70
2 -38 7 -68 12 -68 14 0 12 124 -2 138 -15 15 -65 16 -74 1 -4 -8 -9 -7 -15 2
-5 9 -8 -18 -7 -66z"/>
<path d="M9667 873 c-41 -47 -11 -133 47 -133 28 0 75 35 63 47 -5 4 -13 0
-18 -10 -14 -25 -64 -22 -83 5 -22 31 -12 38 55 38 32 0 59 3 59 6 0 11 -23
49 -34 56 -20 14 -73 8 -89 -9z m85 -10 c29 -26 22 -33 -32 -33 -51 0 -64 12
-38 38 17 17 48 15 70 -5z"/>
<path d="M10250 887 c0 -2 11 -31 25 -65 31 -76 32 -112 5 -119 -11 -3 -20 -9
-20 -14 0 -11 21 -11 37 -1 16 10 86 202 74 202 -5 0 -18 -24 -29 -52 -11 -29
-23 -52 -28 -51 -4 1 -16 24 -26 52 -11 28 -24 51 -29 51 -5 0 -9 -1 -9 -3z"/>
<path d="M10776 868 c-37 -53 -6 -128 52 -128 61 0 96 86 52 130 -28 28 -84
27 -104 -2z m86 -5 c22 -19 24 -76 4 -92 -43 -36 -105 15 -85 68 17 43 49 53
81 24z"/>
<path d="M10956 868 c-36 -51 -7 -128 48 -128 27 0 75 34 63 46 -4 4 -13 0
-20 -10 -19 -25 -68 -18 -83 13 -28 56 32 115 76 76 11 -10 23 -15 28 -11 12
13 -30 36 -64 36 -23 0 -38 -7 -48 -22z"/>
<path d="M11294 882 c-16 -11 -34 -48 -34 -72 0 -29 44 -70 75 -70 14 0 34 9
46 21 25 25 17 39 -9 16 -39 -35 -92 -10 -92 42 0 29 27 61 51 61 8 0 25 -7
37 -16 23 -16 30 -6 10 14 -13 13 -67 16 -84 4z"/>
<path d="M11610 875 c-18 -22 -5 -31 15 -11 22 22 52 20 65 -4 12 -22 11 -23
-45 -35 -38 -8 -55 -23 -55 -46 0 -29 43 -45 77 -30 21 10 28 9 34 -1 5 -8 9
14 9 53 0 37 -5 70 -12 77 -17 17 -73 15 -88 -3z m90 -63 c0 -4 -7 -18 -16
-30 -11 -16 -24 -22 -42 -20 -36 4 -37 39 -2 49 35 10 60 10 60 1z"/>
<path d="M11760 815 c0 -43 4 -75 10 -75 6 0 10 32 10 75 0 43 -4 75 -10 75
-6 0 -10 -32 -10 -75z"/>
<path d="M11820 815 c0 -43 4 -75 10 -75 6 0 10 23 10 51 0 58 13 89 38 89 31
0 42 -22 42 -82 0 -32 4 -58 10 -58 13 0 13 91 0 124 -7 20 -17 26 -38 26 -15
0 -33 -5 -40 -12 -9 -9 -12 -9 -12 0 0 7 -4 12 -10 12 -6 0 -10 -32 -10 -75z"/>
<path d="M11985 759 c-10 -15 3 -25 16 -12 7 7 7 13 1 17 -6 3 -14 1 -17 -5z"/>
</g>
</svg>
